<svg width="1920" height="1080" viewBox="0 0 1920 1080" fill="none" xmlns="http://www.w3.org/2000/svg">
<rect width="1920" height="1080" fill="url(#paint0_radial_826_11)"/>
<mask id="path-2-outside-1_826_11" maskUnits="userSpaceOnUse" x="606" y="359" width="710" height="412" fill="black">
<rect fill="white" x="606" y="359" width="710" height="412"/>
<path d="M794.098 516.4C780.898 516.4 770.898 513.2 764.098 506.8C757.431 500.267 754.098 490.667 754.098 478C754.098 471.733 755.031 464.733 756.898 457L777.298 375.8C765.831 378.867 756.898 384.333 750.498 392.2C744.098 399.933 740.898 408.467 740.898 417.8C740.898 424.333 742.631 430.667 746.098 436.8C738.498 436.8 732.564 434.933 728.298 431.2C724.164 427.467 722.098 422.2 722.098 415.4C722.098 406.733 725.564 398.467 732.498 390.6C739.564 382.6 748.898 376.2 760.498 371.4C772.098 366.6 784.364 364.2 797.298 364.2C801.831 364.2 805.564 364.533 808.498 365.2L784.098 457.6C781.831 466 780.698 473.2 780.698 479.2C780.698 491.867 785.898 498.2 796.298 498.2C811.231 498.2 821.564 484.467 827.298 457L847.298 364.6H875.498L856.098 457C851.831 476.6 844.431 491.4 833.898 501.4C823.498 511.4 810.231 516.4 794.098 516.4ZM938.462 516.2C930.328 516.2 924.328 514.067 920.462 509.8C916.728 505.4 914.862 500 914.862 493.6C914.862 490.8 915.195 487.667 915.862 484.2C916.528 480.6 917.195 477.133 917.862 473.8C918.662 470.467 919.195 468.333 919.462 467.4C920.528 462.733 921.528 458.133 922.462 453.6C923.395 449.067 923.862 445.4 923.862 442.6C923.862 435.8 921.462 432.4 916.662 432.4C913.195 432.4 910.128 434.133 907.462 437.6C904.795 440.933 902.662 445.333 901.062 450.8L887.462 515H858.662L879.862 415H908.662L906.462 425.4C913.128 417.933 920.928 414.2 929.862 414.2C936.662 414.2 942.062 416.067 946.062 419.8C950.062 423.533 952.062 429.2 952.062 436.8C952.062 440.667 951.595 445 950.662 449.8C949.728 454.467 948.395 460.2 946.662 467C945.595 471.133 944.595 475.2 943.662 479.2C942.862 483.067 942.462 486.133 942.462 488.4C942.462 491.067 943.062 493.133 944.262 494.6C945.462 496.067 947.528 496.8 950.462 496.8C954.462 496.8 957.662 495.4 960.062 492.6C962.462 489.667 964.862 485.2 967.262 479.2H975.662C970.728 493.867 964.995 503.733 958.462 508.8C952.062 513.733 945.395 516.2 938.462 516.2ZM1000.64 404.2C996.238 404.2 992.505 402.667 989.438 399.6C986.372 396.533 984.838 392.8 984.838 388.4C984.838 384 986.372 380.267 989.438 377.2C992.505 374 996.238 372.4 1000.64 372.4C1005.04 372.4 1008.77 374 1011.84 377.2C1015.04 380.267 1016.64 384 1016.64 388.4C1016.64 392.8 1015.04 396.533 1011.84 399.6C1008.77 402.667 1005.04 404.2 1000.64 404.2ZM987.038 516.2C980.638 516.2 975.438 514.2 971.438 510.2C967.572 506.2 965.638 500.2 965.638 492.2C965.638 488.867 966.172 484.533 967.238 479.2L980.838 415H1009.64L995.238 483C994.705 485 994.438 487.133 994.438 489.4C994.438 492.067 995.038 494 996.238 495.2C997.572 496.267 999.705 496.8 1002.64 496.8C1005.04 496.8 1007.17 496.4 1009.04 495.6C1008.5 502.267 1006.1 507.4 1001.84 511C997.705 514.467 992.772 516.2 987.038 516.2ZM1055.24 556.4C1045.5 556.4 1037.64 553.867 1031.64 548.8C1025.77 543.867 1022.84 537.333 1022.84 529.2C1022.84 524.133 1024.04 519.467 1026.44 515.2C1028.84 510.933 1032.1 507.6 1036.24 505.2C1040.37 502.667 1044.9 501.4 1049.84 501.4C1054.9 501.4 1058.97 502.667 1062.04 505.2C1065.24 507.733 1066.84 511.067 1066.84 515.2C1066.84 518.4 1066.1 520.933 1064.64 522.8C1063.44 521.2 1061.77 519.933 1059.64 519C1057.64 518.067 1055.5 517.6 1053.24 517.6C1049.24 517.6 1045.97 518.933 1043.44 521.6C1040.9 524.267 1039.64 527.733 1039.64 532C1039.64 536.267 1040.84 539.733 1043.24 542.4C1045.77 545.067 1048.9 546.4 1052.64 546.4C1057.3 546.4 1061.3 544.333 1064.64 540.2C1067.97 536.067 1070.5 529.933 1072.24 521.8L1082.24 477.6H1081.44C1077.84 482.667 1073.44 486.533 1068.24 489.2C1063.17 491.867 1057.57 493.2 1051.44 493.2C1043.7 493.2 1036.9 491.133 1031.04 487C1025.17 482.867 1020.64 477 1017.44 469.4C1014.37 461.667 1012.84 452.733 1012.84 442.6C1012.84 427.933 1016.04 414.6 1022.44 402.6C1028.84 390.467 1037.64 380.933 1048.84 374C1060.04 367.067 1072.37 363.6 1085.84 363.6C1097.17 363.6 1106.1 366.067 1112.64 371C1119.3 375.933 1122.64 382.667 1122.64 391.2C1122.64 396.933 1121.24 401.533 1118.44 405C1115.64 408.467 1111.97 410.2 1107.44 410.2C1104.9 410.2 1102.5 409.667 1100.24 408.6C1098.1 407.533 1096.3 406 1094.84 404C1097.24 402.4 1099.24 399.867 1100.84 396.4C1102.57 392.8 1103.44 389.2 1103.44 385.6C1103.44 381.6 1102.24 378.533 1099.84 376.4C1097.57 374.133 1094.3 373 1090.04 373C1082.3 373 1074.84 376.467 1067.64 383.4C1060.44 390.2 1054.64 399.133 1050.24 410.2C1045.84 421.267 1043.64 432.867 1043.64 445C1043.64 455 1045.24 462.667 1048.44 468C1051.64 473.2 1056.24 475.8 1062.24 475.8C1069.44 475.8 1075.77 472 1081.24 464.4C1086.84 456.8 1091.3 445.733 1094.64 431.2L1118.24 431.4L1103.64 498.6C1099.37 518.467 1093.3 533.067 1085.44 542.4C1077.7 551.733 1067.64 556.4 1055.24 556.4ZM1152.86 516.2C1143.13 516.2 1135.53 513.667 1130.06 508.6C1124.59 503.4 1121.86 495.333 1121.86 484.4C1121.86 475.2 1123.66 465.067 1127.26 454C1130.86 442.933 1136.73 433.4 1144.86 425.4C1152.99 417.267 1163.33 413.2 1175.86 413.2C1190.53 413.2 1197.86 419.6 1197.86 432.4C1197.86 439.867 1195.73 446.733 1191.46 453C1187.19 459.267 1181.53 464.333 1174.46 468.2C1167.39 471.933 1159.86 474.067 1151.86 474.6C1151.59 477.533 1151.46 479.533 1151.46 480.6C1151.46 491.667 1155.59 497.2 1163.86 497.2C1167.59 497.2 1171.59 496.2 1175.86 494.2C1180.13 492.2 1183.99 489.667 1187.46 486.6C1183.86 506.333 1172.33 516.2 1152.86 516.2ZM1153.26 465C1158.33 464.867 1163.06 463.2 1167.46 460C1171.99 456.8 1175.59 452.733 1178.26 447.8C1181.06 442.733 1182.46 437.467 1182.46 432C1182.46 426.533 1180.79 423.8 1177.46 423.8C1172.79 423.8 1168.13 428.067 1163.46 436.6C1158.93 445 1155.53 454.467 1153.26 465ZM669.226 582.6H666.826C654.959 582.6 645.692 585.6 639.026 591.6C632.492 597.467 629.226 607.933 629.226 623C629.226 627.933 629.692 631.4 630.626 633.4C631.559 635.267 632.026 636.333 632.026 636.6C624.826 636.6 619.426 635.133 615.826 632.2C612.359 629.133 610.626 624.133 610.626 617.2C610.626 607.733 612.959 599.133 617.626 591.4C622.292 583.533 629.692 577.2 639.826 572.4C650.092 567.6 663.092 565.2 678.826 565.2C687.626 565.2 697.092 566 707.226 567.6C715.759 569.067 723.359 569.8 730.026 569.8C738.559 569.8 746.292 568.4 753.226 565.6C752.959 574.267 750.759 580.667 746.626 584.8C742.492 588.933 736.359 591 728.226 591C723.959 591 719.692 590.667 715.426 590C711.159 589.333 705.092 588.2 697.226 586.6L669.626 715H640.826L669.226 582.6ZM734.315 716.2C724.448 716.2 716.782 713.667 711.315 708.6C705.848 703.4 703.115 695.333 703.115 684.4C703.115 675.2 704.915 665.067 708.515 654C712.115 642.933 717.982 633.4 726.115 625.4C734.248 617.267 744.582 613.2 757.115 613.2C771.782 613.2 779.115 619.6 779.115 632.4C779.115 639.867 776.982 646.733 772.715 653C768.448 659.267 762.782 664.333 755.715 668.2C748.648 671.933 741.115 674.067 733.115 674.6C732.848 678.6 732.715 681.267 732.715 682.6C732.715 689.133 733.848 693.6 736.115 696C738.382 698.267 742.048 699.4 747.115 699.4C754.315 699.4 760.448 697.733 765.515 694.4C770.715 691.067 776.382 686 782.515 679.2H789.315C774.515 703.867 756.182 716.2 734.315 716.2ZM734.715 665C739.648 664.733 744.315 663 748.715 659.8C753.248 656.6 756.848 652.533 759.515 647.6C762.315 642.667 763.715 637.467 763.715 632C763.715 626.533 762.048 623.8 758.715 623.8C753.915 623.8 749.182 628 744.515 636.4C739.982 644.8 736.715 654.333 734.715 665ZM904.073 716.2C895.939 716.2 889.939 714.067 886.073 709.8C882.339 705.4 880.473 700 880.473 693.6C880.473 690.8 880.806 687.667 881.473 684.2C882.139 680.6 882.806 677.133 883.473 673.8C884.273 670.467 884.806 668.333 885.073 667.4C886.139 662.733 887.139 658.133 888.073 653.6C889.006 649.067 889.473 645.4 889.473 642.6C889.473 635.8 887.073 632.4 882.273 632.4C878.806 632.4 875.739 634.133 873.073 637.6C870.406 640.933 868.273 645.333 866.673 650.8L853.073 715H824.273L838.873 646C839.273 644.4 839.473 642.733 839.473 641C839.473 635.133 837.473 632.2 833.473 632.2C829.739 632.2 826.473 633.933 823.673 637.4C821.006 640.733 818.873 645.2 817.273 650.8L803.673 715H774.873L796.073 615H824.873L822.673 625.4C829.473 617.8 837.606 614 847.073 614C858.806 614 865.673 619.733 867.673 631.2C875.006 619.867 884.273 614.2 895.473 614.2C902.273 614.2 907.673 616.067 911.673 619.8C915.673 623.533 917.673 629.2 917.673 636.8C917.673 640.667 917.206 645 916.273 649.8C915.339 654.467 914.006 660.2 912.273 667C911.206 671.133 910.206 675.2 909.273 679.2C908.473 683.067 908.073 686.133 908.073 688.4C908.073 691.067 908.673 693.133 909.873 694.6C911.073 696.067 913.139 696.8 916.073 696.8C920.073 696.8 923.273 695.4 925.673 692.6C928.073 689.667 930.473 685.2 932.873 679.2H941.273C936.339 693.867 930.606 703.733 924.073 708.8C917.673 713.733 911.006 716.2 904.073 716.2ZM948.063 607.6H976.863L973.663 622.6C980.33 616.867 988.13 614 997.063 614C1004.53 614 1010.46 616.467 1014.86 621.4C1019.26 626.333 1021.46 634.4 1021.46 645.6C1021.46 656.133 1019.93 666.8 1016.86 677.6C1013.8 688.267 1008.6 697.4 1001.26 705C993.93 712.467 984.263 716.2 972.263 716.2C963.73 716.2 958.063 713.8 955.263 709L944.863 757.8L914.663 765L948.063 607.6ZM966.063 698.8C972.463 698.8 977.73 695.8 981.863 689.8C986.13 683.8 989.197 676.667 991.063 668.4C993.063 660 994.063 652.2 994.063 645C994.063 633.933 990.73 628.4 984.063 628.4C981.663 628.4 979.197 629.267 976.663 631C974.263 632.733 972.13 635.133 970.263 638.2L958.463 694.2C959.53 697.267 962.063 698.8 966.063 698.8ZM1046.22 716.2C1039.82 716.2 1034.62 714.2 1030.62 710.2C1026.75 706.2 1024.82 700.2 1024.82 692.2C1024.82 688.867 1025.35 684.533 1026.42 679.2L1047.82 579L1077.42 575L1054.42 683C1053.88 685 1053.62 687.133 1053.62 689.4C1053.62 692.067 1054.22 694 1055.42 695.2C1056.75 696.267 1058.88 696.8 1061.82 696.8C1065.68 696.8 1069.28 695.2 1072.62 692C1075.95 688.667 1078.35 684.4 1079.82 679.2H1088.22C1083.28 693.6 1076.95 703.4 1069.22 708.6C1061.48 713.667 1053.82 716.2 1046.22 716.2ZM1103.74 716.2C1096.14 716.2 1089.8 713.6 1084.74 708.4C1079.67 703.2 1077.14 695.067 1077.14 684C1077.14 674.133 1079.07 663.8 1082.94 653C1086.94 642.067 1092.8 632.867 1100.54 625.4C1108.4 617.8 1117.74 614 1128.54 614C1134 614 1138.07 614.933 1140.74 616.8C1143.4 618.667 1144.74 621.133 1144.74 624.2V625.6L1146.94 615H1175.74L1161.34 683C1160.8 685 1160.54 687.133 1160.54 689.4C1160.54 695.133 1163.27 698 1168.74 698C1172.47 698 1175.67 696.267 1178.34 692.8C1181.14 689.333 1183.34 684.8 1184.94 679.2H1193.34C1188.4 693.6 1182.27 703.4 1174.94 708.6C1167.74 713.667 1160.47 716.2 1153.14 716.2C1147.54 716.2 1143 714.667 1139.54 711.6C1136.2 708.4 1134.2 703.8 1133.54 697.8C1129.67 703.267 1125.34 707.733 1120.54 711.2C1115.87 714.533 1110.27 716.2 1103.74 716.2ZM1116.74 696.8C1120.07 696.8 1123.34 695.267 1126.54 692.2C1129.87 689 1132.14 684.667 1133.34 679.2L1142.94 634C1142.94 632.267 1142.27 630.6 1140.94 629C1139.6 627.267 1137.54 626.4 1134.74 626.4C1129.4 626.4 1124.6 629.533 1120.34 635.8C1116.07 641.933 1112.74 649.4 1110.34 658.2C1107.94 666.867 1106.74 674.533 1106.74 681.2C1106.74 687.867 1107.67 692.133 1109.54 694C1111.54 695.867 1113.94 696.8 1116.74 696.8ZM1204.81 716.2C1198.41 716.2 1193.21 714.2 1189.21 710.2C1185.35 706.2 1183.41 700.2 1183.41 692.2C1183.41 688.867 1183.95 684.533 1185.01 679.2L1197.01 623H1190.41L1192.01 615H1198.61L1204.61 587.4L1234.21 583.4L1227.41 615H1239.41L1237.81 623H1225.81L1213.01 683C1212.48 685 1212.21 687.133 1212.21 689.4C1212.21 692.067 1212.81 694 1214.01 695.2C1215.35 696.267 1217.48 696.8 1220.41 696.8C1224.28 696.8 1227.88 695.2 1231.21 692C1234.55 688.667 1236.95 684.4 1238.41 679.2H1246.81C1241.88 693.6 1235.55 703.4 1227.81 708.6C1220.08 713.667 1212.41 716.2 1204.81 716.2ZM1266.53 716.2C1256.8 716.2 1249.2 713.667 1243.73 708.6C1238.27 703.4 1235.53 695.333 1235.53 684.4C1235.53 675.2 1237.33 665.067 1240.93 654C1244.53 642.933 1250.4 633.4 1258.53 625.4C1266.67 617.267 1277 613.2 1289.53 613.2C1304.2 613.2 1311.53 619.6 1311.53 632.4C1311.53 639.867 1309.4 646.733 1305.13 653C1300.87 659.267 1295.2 664.333 1288.13 668.2C1281.07 671.933 1273.53 674.067 1265.53 674.6C1265.27 677.533 1265.13 679.533 1265.13 680.6C1265.13 691.667 1269.27 697.2 1277.53 697.2C1281.27 697.2 1285.27 696.2 1289.53 694.2C1293.8 692.2 1297.67 689.667 1301.13 686.6C1297.53 706.333 1286 716.2 1266.53 716.2ZM1266.93 665C1272 664.867 1276.73 663.2 1281.13 660C1285.67 656.8 1289.27 652.733 1291.93 647.8C1294.73 642.733 1296.13 637.467 1296.13 632C1296.13 626.533 1294.47 623.8 1291.13 623.8C1286.47 623.8 1281.8 628.067 1277.13 636.6C1272.6 645 1269.2 654.467 1266.93 665Z"/>
</mask>
<path d="M794.098 516.4C780.898 516.4 770.898 513.2 764.098 506.8C757.431 500.267 754.098 490.667 754.098 478C754.098 471.733 755.031 464.733 756.898 457L777.298 375.8C765.831 378.867 756.898 384.333 750.498 392.2C744.098 399.933 740.898 408.467 740.898 417.8C740.898 424.333 742.631 430.667 746.098 436.8C738.498 436.8 732.564 434.933 728.298 431.2C724.164 427.467 722.098 422.2 722.098 415.4C722.098 406.733 725.564 398.467 732.498 390.6C739.564 382.6 748.898 376.2 760.498 371.4C772.098 366.6 784.364 364.2 797.298 364.2C801.831 364.2 805.564 364.533 808.498 365.2L784.098 457.6C781.831 466 780.698 473.2 780.698 479.2C780.698 491.867 785.898 498.2 796.298 498.2C811.231 498.2 821.564 484.467 827.298 457L847.298 364.6H875.498L856.098 457C851.831 476.6 844.431 491.4 833.898 501.4C823.498 511.4 810.231 516.4 794.098 516.4ZM938.462 516.2C930.328 516.2 924.328 514.067 920.462 509.8C916.728 505.4 914.862 500 914.862 493.6C914.862 490.8 915.195 487.667 915.862 484.2C916.528 480.6 917.195 477.133 917.862 473.8C918.662 470.467 919.195 468.333 919.462 467.4C920.528 462.733 921.528 458.133 922.462 453.6C923.395 449.067 923.862 445.4 923.862 442.6C923.862 435.8 921.462 432.4 916.662 432.4C913.195 432.4 910.128 434.133 907.462 437.6C904.795 440.933 902.662 445.333 901.062 450.8L887.462 515H858.662L879.862 415H908.662L906.462 425.4C913.128 417.933 920.928 414.2 929.862 414.2C936.662 414.2 942.062 416.067 946.062 419.8C950.062 423.533 952.062 429.2 952.062 436.8C952.062 440.667 951.595 445 950.662 449.8C949.728 454.467 948.395 460.2 946.662 467C945.595 471.133 944.595 475.2 943.662 479.2C942.862 483.067 942.462 486.133 942.462 488.4C942.462 491.067 943.062 493.133 944.262 494.6C945.462 496.067 947.528 496.8 950.462 496.8C954.462 496.8 957.662 495.4 960.062 492.6C962.462 489.667 964.862 485.2 967.262 479.2H975.662C970.728 493.867 964.995 503.733 958.462 508.8C952.062 513.733 945.395 516.2 938.462 516.2ZM1000.64 404.2C996.238 404.2 992.505 402.667 989.438 399.6C986.372 396.533 984.838 392.8 984.838 388.4C984.838 384 986.372 380.267 989.438 377.2C992.505 374 996.238 372.4 1000.64 372.4C1005.04 372.4 1008.77 374 1011.84 377.2C1015.04 380.267 1016.64 384 1016.64 388.4C1016.64 392.8 1015.04 396.533 1011.84 399.6C1008.77 402.667 1005.04 404.2 1000.64 404.2ZM987.038 516.2C980.638 516.2 975.438 514.2 971.438 510.2C967.572 506.2 965.638 500.2 965.638 492.2C965.638 488.867 966.172 484.533 967.238 479.2L980.838 415H1009.64L995.238 483C994.705 485 994.438 487.133 994.438 489.4C994.438 492.067 995.038 494 996.238 495.2C997.572 496.267 999.705 496.8 1002.64 496.8C1005.04 496.8 1007.17 496.4 1009.04 495.6C1008.5 502.267 1006.1 507.4 1001.84 511C997.705 514.467 992.772 516.2 987.038 516.2ZM1055.24 556.4C1045.5 556.4 1037.64 553.867 1031.64 548.8C1025.77 543.867 1022.84 537.333 1022.84 529.2C1022.84 524.133 1024.04 519.467 1026.44 515.2C1028.84 510.933 1032.1 507.6 1036.24 505.2C1040.37 502.667 1044.9 501.4 1049.84 501.4C1054.9 501.4 1058.97 502.667 1062.04 505.2C1065.24 507.733 1066.84 511.067 1066.84 515.2C1066.84 518.4 1066.1 520.933 1064.64 522.8C1063.44 521.2 1061.77 519.933 1059.64 519C1057.64 518.067 1055.5 517.6 1053.24 517.6C1049.24 517.6 1045.97 518.933 1043.44 521.6C1040.9 524.267 1039.64 527.733 1039.64 532C1039.64 536.267 1040.84 539.733 1043.24 542.4C1045.77 545.067 1048.9 546.4 1052.64 546.4C1057.3 546.4 1061.3 544.333 1064.64 540.2C1067.97 536.067 1070.5 529.933 1072.24 521.8L1082.24 477.6H1081.44C1077.84 482.667 1073.44 486.533 1068.24 489.2C1063.17 491.867 1057.57 493.2 1051.44 493.2C1043.7 493.2 1036.9 491.133 1031.04 487C1025.17 482.867 1020.64 477 1017.44 469.4C1014.37 461.667 1012.84 452.733 1012.84 442.6C1012.84 427.933 1016.04 414.6 1022.44 402.6C1028.84 390.467 1037.64 380.933 1048.84 374C1060.04 367.067 1072.37 363.6 1085.84 363.6C1097.17 363.6 1106.1 366.067 1112.64 371C1119.3 375.933 1122.64 382.667 1122.64 391.2C1122.64 396.933 1121.24 401.533 1118.44 405C1115.64 408.467 1111.97 410.2 1107.44 410.2C1104.9 410.2 1102.5 409.667 1100.24 408.6C1098.1 407.533 1096.3 406 1094.84 404C1097.24 402.4 1099.24 399.867 1100.84 396.4C1102.57 392.8 1103.44 389.2 1103.44 385.6C1103.44 381.6 1102.24 378.533 1099.84 376.4C1097.57 374.133 1094.3 373 1090.04 373C1082.3 373 1074.84 376.467 1067.64 383.4C1060.44 390.2 1054.64 399.133 1050.24 410.2C1045.84 421.267 1043.64 432.867 1043.64 445C1043.64 455 1045.24 462.667 1048.44 468C1051.64 473.2 1056.24 475.8 1062.24 475.8C1069.44 475.8 1075.77 472 1081.24 464.4C1086.84 456.8 1091.3 445.733 1094.64 431.2L1118.24 431.4L1103.64 498.6C1099.37 518.467 1093.3 533.067 1085.44 542.4C1077.7 551.733 1067.64 556.4 1055.24 556.4ZM1152.86 516.2C1143.13 516.2 1135.53 513.667 1130.06 508.6C1124.59 503.4 1121.86 495.333 1121.86 484.4C1121.86 475.2 1123.66 465.067 1127.26 454C1130.86 442.933 1136.73 433.4 1144.86 425.4C1152.99 417.267 1163.33 413.2 1175.86 413.2C1190.53 413.2 1197.86 419.6 1197.86 432.4C1197.86 439.867 1195.73 446.733 1191.46 453C1187.19 459.267 1181.53 464.333 1174.46 468.2C1167.39 471.933 1159.86 474.067 1151.86 474.6C1151.59 477.533 1151.46 479.533 1151.46 480.6C1151.46 491.667 1155.59 497.2 1163.86 497.2C1167.59 497.2 1171.59 496.2 1175.86 494.2C1180.13 492.2 1183.99 489.667 1187.46 486.6C1183.86 506.333 1172.33 516.2 1152.86 516.2ZM1153.26 465C1158.33 464.867 1163.06 463.2 1167.46 460C1171.99 456.8 1175.59 452.733 1178.26 447.8C1181.06 442.733 1182.46 437.467 1182.46 432C1182.46 426.533 1180.79 423.8 1177.46 423.8C1172.79 423.8 1168.13 428.067 1163.46 436.6C1158.93 445 1155.53 454.467 1153.26 465ZM669.226 582.6H666.826C654.959 582.6 645.692 585.6 639.026 591.6C632.492 597.467 629.226 607.933 629.226 623C629.226 627.933 629.692 631.4 630.626 633.4C631.559 635.267 632.026 636.333 632.026 636.6C624.826 636.6 619.426 635.133 615.826 632.2C612.359 629.133 610.626 624.133 610.626 617.2C610.626 607.733 612.959 599.133 617.626 591.4C622.292 583.533 629.692 577.2 639.826 572.4C650.092 567.6 663.092 565.2 678.826 565.2C687.626 565.2 697.092 566 707.226 567.6C715.759 569.067 723.359 569.8 730.026 569.8C738.559 569.8 746.292 568.4 753.226 565.6C752.959 574.267 750.759 580.667 746.626 584.8C742.492 588.933 736.359 591 728.226 591C723.959 591 719.692 590.667 715.426 590C711.159 589.333 705.092 588.2 697.226 586.6L669.626 715H640.826L669.226 582.6ZM734.315 716.2C724.448 716.2 716.782 713.667 711.315 708.6C705.848 703.4 703.115 695.333 703.115 684.4C703.115 675.2 704.915 665.067 708.515 654C712.115 642.933 717.982 633.4 726.115 625.4C734.248 617.267 744.582 613.2 757.115 613.2C771.782 613.2 779.115 619.6 779.115 632.4C779.115 639.867 776.982 646.733 772.715 653C768.448 659.267 762.782 664.333 755.715 668.2C748.648 671.933 741.115 674.067 733.115 674.6C732.848 678.6 732.715 681.267 732.715 682.6C732.715 689.133 733.848 693.6 736.115 696C738.382 698.267 742.048 699.4 747.115 699.4C754.315 699.4 760.448 697.733 765.515 694.4C770.715 691.067 776.382 686 782.515 679.2H789.315C774.515 703.867 756.182 716.2 734.315 716.2ZM734.715 665C739.648 664.733 744.315 663 748.715 659.8C753.248 656.6 756.848 652.533 759.515 647.6C762.315 642.667 763.715 637.467 763.715 632C763.715 626.533 762.048 623.8 758.715 623.8C753.915 623.8 749.182 628 744.515 636.4C739.982 644.8 736.715 654.333 734.715 665ZM904.073 716.2C895.939 716.2 889.939 714.067 886.073 709.8C882.339 705.4 880.473 700 880.473 693.6C880.473 690.8 880.806 687.667 881.473 684.2C882.139 680.6 882.806 677.133 883.473 673.8C884.273 670.467 884.806 668.333 885.073 667.4C886.139 662.733 887.139 658.133 888.073 653.6C889.006 649.067 889.473 645.4 889.473 642.6C889.473 635.8 887.073 632.4 882.273 632.4C878.806 632.4 875.739 634.133 873.073 637.6C870.406 640.933 868.273 645.333 866.673 650.8L853.073 715H824.273L838.873 646C839.273 644.4 839.473 642.733 839.473 641C839.473 635.133 837.473 632.2 833.473 632.2C829.739 632.2 826.473 633.933 823.673 637.4C821.006 640.733 818.873 645.2 817.273 650.8L803.673 715H774.873L796.073 615H824.873L822.673 625.4C829.473 617.8 837.606 614 847.073 614C858.806 614 865.673 619.733 867.673 631.2C875.006 619.867 884.273 614.2 895.473 614.2C902.273 614.2 907.673 616.067 911.673 619.8C915.673 623.533 917.673 629.2 917.673 636.8C917.673 640.667 917.206 645 916.273 649.8C915.339 654.467 914.006 660.2 912.273 667C911.206 671.133 910.206 675.2 909.273 679.2C908.473 683.067 908.073 686.133 908.073 688.4C908.073 691.067 908.673 693.133 909.873 694.6C911.073 696.067 913.139 696.8 916.073 696.8C920.073 696.8 923.273 695.4 925.673 692.6C928.073 689.667 930.473 685.2 932.873 679.2H941.273C936.339 693.867 930.606 703.733 924.073 708.8C917.673 713.733 911.006 716.2 904.073 716.2ZM948.063 607.6H976.863L973.663 622.6C980.33 616.867 988.13 614 997.063 614C1004.53 614 1010.46 616.467 1014.86 621.4C1019.26 626.333 1021.46 634.4 1021.46 645.6C1021.46 656.133 1019.93 666.8 1016.86 677.6C1013.8 688.267 1008.6 697.4 1001.26 705C993.93 712.467 984.263 716.2 972.263 716.2C963.73 716.2 958.063 713.8 955.263 709L944.863 757.8L914.663 765L948.063 607.6ZM966.063 698.8C972.463 698.8 977.73 695.8 981.863 689.8C986.13 683.8 989.197 676.667 991.063 668.4C993.063 660 994.063 652.2 994.063 645C994.063 633.933 990.73 628.4 984.063 628.4C981.663 628.4 979.197 629.267 976.663 631C974.263 632.733 972.13 635.133 970.263 638.2L958.463 694.2C959.53 697.267 962.063 698.8 966.063 698.8ZM1046.22 716.2C1039.82 716.2 1034.62 714.2 1030.62 710.2C1026.75 706.2 1024.82 700.2 1024.82 692.2C1024.82 688.867 1025.35 684.533 1026.42 679.2L1047.82 579L1077.42 575L1054.42 683C1053.88 685 1053.62 687.133 1053.62 689.4C1053.62 692.067 1054.22 694 1055.42 695.2C1056.75 696.267 1058.88 696.8 1061.82 696.8C1065.68 696.8 1069.28 695.2 1072.62 692C1075.95 688.667 1078.35 684.4 1079.82 679.2H1088.22C1083.28 693.6 1076.95 703.4 1069.22 708.6C1061.48 713.667 1053.82 716.2 1046.22 716.2ZM1103.74 716.2C1096.14 716.2 1089.8 713.6 1084.74 708.4C1079.67 703.2 1077.14 695.067 1077.14 684C1077.14 674.133 1079.07 663.8 1082.94 653C1086.94 642.067 1092.8 632.867 1100.54 625.4C1108.4 617.8 1117.74 614 1128.54 614C1134 614 1138.07 614.933 1140.74 616.8C1143.4 618.667 1144.74 621.133 1144.74 624.2V625.6L1146.94 615H1175.74L1161.34 683C1160.8 685 1160.54 687.133 1160.54 689.4C1160.54 695.133 1163.27 698 1168.74 698C1172.47 698 1175.67 696.267 1178.34 692.8C1181.14 689.333 1183.34 684.8 1184.94 679.2H1193.34C1188.4 693.6 1182.27 703.4 1174.94 708.6C1167.74 713.667 1160.47 716.2 1153.14 716.2C1147.54 716.2 1143 714.667 1139.54 711.6C1136.2 708.4 1134.2 703.8 1133.54 697.8C1129.67 703.267 1125.34 707.733 1120.54 711.2C1115.87 714.533 1110.27 716.2 1103.74 716.2ZM1116.74 696.8C1120.07 696.8 1123.34 695.267 1126.54 692.2C1129.87 689 1132.14 684.667 1133.34 679.2L1142.94 634C1142.94 632.267 1142.27 630.6 1140.94 629C1139.6 627.267 1137.54 626.4 1134.74 626.4C1129.4 626.4 1124.6 629.533 1120.34 635.8C1116.07 641.933 1112.74 649.4 1110.34 658.2C1107.94 666.867 1106.74 674.533 1106.74 681.2C1106.74 687.867 1107.67 692.133 1109.54 694C1111.54 695.867 1113.94 696.8 1116.74 696.8ZM1204.81 716.2C1198.41 716.2 1193.21 714.2 1189.21 710.2C1185.35 706.2 1183.41 700.2 1183.41 692.2C1183.41 688.867 1183.95 684.533 1185.01 679.2L1197.01 623H1190.41L1192.01 615H1198.61L1204.61 587.4L1234.21 583.4L1227.41 615H1239.41L1237.81 623H1225.81L1213.01 683C1212.48 685 1212.21 687.133 1212.21 689.4C1212.21 692.067 1212.81 694 1214.01 695.2C1215.35 696.267 1217.48 696.8 1220.41 696.8C1224.28 696.8 1227.88 695.2 1231.21 692C1234.55 688.667 1236.95 684.4 1238.41 679.2H1246.81C1241.88 693.6 1235.55 703.4 1227.81 708.6C1220.08 713.667 1212.41 716.2 1204.81 716.2ZM1266.53 716.2C1256.8 716.2 1249.2 713.667 1243.73 708.6C1238.27 703.4 1235.53 695.333 1235.53 684.4C1235.53 675.2 1237.33 665.067 1240.93 654C1244.53 642.933 1250.4 633.4 1258.53 625.4C1266.67 617.267 1277 613.2 1289.53 613.2C1304.2 613.2 1311.53 619.6 1311.53 632.4C1311.53 639.867 1309.4 646.733 1305.13 653C1300.87 659.267 1295.2 664.333 1288.13 668.2C1281.07 671.933 1273.53 674.067 1265.53 674.6C1265.27 677.533 1265.13 679.533 1265.13 680.6C1265.13 691.667 1269.27 697.2 1277.53 697.2C1281.27 697.2 1285.27 696.2 1289.53 694.2C1293.8 692.2 1297.67 689.667 1301.13 686.6C1297.53 706.333 1286 716.2 1266.53 716.2ZM1266.93 665C1272 664.867 1276.73 663.2 1281.13 660C1285.67 656.8 1289.27 652.733 1291.93 647.8C1294.73 642.733 1296.13 637.467 1296.13 632C1296.13 626.533 1294.47 623.8 1291.13 623.8C1286.47 623.8 1281.8 628.067 1277.13 636.6C1272.6 645 1269.2 654.467 1266.93 665Z" fill="#F4FBFF"/>
<path d="M764.098 506.8L761.298 509.657L761.327 509.685L761.356 509.713L764.098 506.8ZM756.898 457L753.018 456.025L753.014 456.043L753.009 456.061L756.898 457ZM777.298 375.8L781.177 376.775L782.834 370.179L776.264 371.936L777.298 375.8ZM750.498 392.2L753.579 394.75L753.59 394.737L753.601 394.724L750.498 392.2ZM746.098 436.8V440.8H752.953L749.58 434.832L746.098 436.8ZM728.298 431.2L725.617 434.168L725.64 434.19L725.664 434.21L728.298 431.2ZM732.498 390.6L729.5 387.952L729.497 387.955L732.498 390.6ZM760.498 371.4L758.968 367.704L758.968 367.704L760.498 371.4ZM808.498 365.2L812.365 366.221L813.422 362.217L809.384 361.299L808.498 365.2ZM784.098 457.6L787.96 458.642L787.962 458.632L787.965 458.621L784.098 457.6ZM827.298 457L823.388 456.154L823.385 456.168L823.382 456.183L827.298 457ZM847.298 364.6V360.6H844.071L843.388 363.754L847.298 364.6ZM875.498 364.6L879.412 365.422L880.425 360.6H875.498V364.6ZM856.098 457L860.006 457.851L860.009 457.836L860.012 457.822L856.098 457ZM833.898 501.4L831.144 498.499L831.134 498.508L831.125 498.517L833.898 501.4ZM794.098 512.4C781.494 512.4 772.638 509.345 766.839 503.887L761.356 509.713C769.157 517.055 780.301 520.4 794.098 520.4V512.4ZM766.897 503.943C761.241 498.4 758.098 489.987 758.098 478H750.098C750.098 491.346 753.621 502.133 761.298 509.657L766.897 503.943ZM758.098 478C758.098 472.121 758.975 465.443 760.786 457.939L753.009 456.061C751.087 464.024 750.098 471.346 750.098 478H758.098ZM760.777 457.975L781.177 376.775L773.418 374.825L753.018 456.025L760.777 457.975ZM776.264 371.936C764.127 375.182 754.413 381.049 747.395 389.676L753.601 394.724C759.383 387.617 767.535 382.552 778.331 379.664L776.264 371.936ZM747.416 389.65C740.471 398.042 736.898 407.463 736.898 417.8H744.898C744.898 409.471 747.725 401.825 753.579 394.75L747.416 389.65ZM736.898 417.8C736.898 425.077 738.837 432.083 742.615 438.768L749.58 434.832C746.425 429.25 744.898 423.59 744.898 417.8H736.898ZM746.098 432.8C739.133 432.8 734.252 431.095 730.932 428.19L725.664 434.21C730.877 438.772 737.862 440.8 746.098 440.8V432.8ZM730.979 428.232C727.867 425.421 726.098 421.339 726.098 415.4H718.098C718.098 423.061 720.462 429.513 725.617 434.168L730.979 428.232ZM726.098 415.4C726.098 407.902 729.067 400.542 735.498 393.245L729.497 387.955C722.061 396.392 718.098 405.565 718.098 415.4H726.098ZM735.496 393.248C742.094 385.778 750.891 379.704 762.027 375.096L758.968 367.704C746.904 372.696 737.035 379.422 729.5 387.952L735.496 393.248ZM762.027 375.096C773.127 370.503 784.873 368.2 797.298 368.2V360.2C783.856 360.2 771.068 362.697 758.968 367.704L762.027 375.096ZM797.298 368.2C801.667 368.2 805.075 368.524 807.611 369.101L809.384 361.299C806.053 360.542 801.995 360.2 797.298 360.2V368.2ZM804.63 364.179L780.23 456.579L787.965 458.621L812.365 366.221L804.63 364.179ZM780.236 456.558C777.915 465.16 776.698 472.729 776.698 479.2H784.698C784.698 473.671 785.747 466.84 787.96 458.642L780.236 456.558ZM776.698 479.2C776.698 485.979 778.073 491.807 781.506 495.988C785.063 500.32 790.25 502.2 796.298 502.2V494.2C791.945 494.2 789.332 492.913 787.689 490.912C785.922 488.76 784.698 485.087 784.698 479.2H776.698ZM796.298 502.2C805.222 502.2 812.651 498.003 818.444 490.305C824.119 482.763 828.293 471.805 831.213 457.817L823.382 456.183C820.569 469.661 816.71 479.304 812.051 485.495C807.511 491.53 802.306 494.2 796.298 494.2V502.2ZM831.207 457.846L851.207 365.446L843.388 363.754L823.388 456.154L831.207 457.846ZM847.298 368.6H875.498V360.6H847.298V368.6ZM871.583 363.778L852.183 456.178L860.012 457.822L879.412 365.422L871.583 363.778ZM852.189 456.149C848.03 475.255 840.912 489.225 831.144 498.499L836.652 504.301C847.95 493.575 855.632 477.945 860.006 457.851L852.189 456.149ZM831.125 498.517C821.561 507.713 809.33 512.4 794.098 512.4V520.4C811.132 520.4 825.434 515.087 836.67 504.283L831.125 498.517ZM920.462 509.8L917.412 512.388L917.454 512.438L917.498 512.486L920.462 509.8ZM915.862 484.2L919.79 484.955L919.792 484.942L919.795 484.928L915.862 484.2ZM917.862 473.8L913.972 472.867L913.954 472.941L913.939 473.016L917.862 473.8ZM919.462 467.4L923.308 468.499L923.337 468.396L923.361 468.291L919.462 467.4ZM907.462 437.6L910.585 440.099L910.609 440.069L910.632 440.039L907.462 437.6ZM901.062 450.8L897.223 449.676L897.18 449.822L897.149 449.971L901.062 450.8ZM887.462 515V519H890.703L891.375 515.829L887.462 515ZM858.662 515L854.749 514.17L853.725 519H858.662V515ZM879.862 415V411H876.621L875.949 414.17L879.862 415ZM908.662 415L912.575 415.828L913.596 411H908.662V415ZM906.462 425.4L902.548 424.572L899.439 439.271L909.445 428.064L906.462 425.4ZM950.662 449.8L954.584 450.584L954.586 450.574L954.588 450.563L950.662 449.8ZM946.662 467L950.535 468L950.538 467.988L946.662 467ZM943.662 479.2L939.766 478.291L939.755 478.34L939.745 478.39L943.662 479.2ZM960.062 492.6L963.099 495.203L963.129 495.168L963.158 495.133L960.062 492.6ZM967.262 479.2V475.2H964.554L963.548 477.714L967.262 479.2ZM975.662 479.2L979.453 480.475L981.227 475.2H975.662V479.2ZM958.462 508.8L960.904 511.968L960.913 511.961L958.462 508.8ZM938.462 512.2C930.979 512.2 926.263 510.245 923.426 507.114L917.498 512.486C922.394 517.888 929.678 520.2 938.462 520.2V512.2ZM923.512 507.212C920.46 503.615 918.862 499.163 918.862 493.6H910.862C910.862 500.837 912.997 507.185 917.412 512.388L923.512 507.212ZM918.862 493.6C918.862 491.109 919.159 488.234 919.79 484.955L911.934 483.445C911.231 487.099 910.862 490.491 910.862 493.6H918.862ZM919.795 484.928C920.458 481.346 921.121 477.898 921.784 474.584L913.939 473.016C913.269 476.369 912.598 479.854 911.929 483.472L919.795 484.928ZM921.751 474.733C922.557 471.376 923.069 469.333 923.308 468.499L915.616 466.301C915.321 467.333 914.766 469.557 913.972 472.867L921.751 474.733ZM923.361 468.291C924.434 463.597 925.44 458.969 926.38 454.407L918.544 452.793C917.617 457.297 916.623 461.869 915.562 466.509L923.361 468.291ZM926.38 454.407C927.337 449.756 927.862 445.789 927.862 442.6H919.862C919.862 445.011 919.453 448.378 918.544 452.793L926.38 454.407ZM927.862 442.6C927.862 438.851 927.222 435.324 925.33 432.643C923.257 429.707 920.132 428.4 916.662 428.4V436.4C917.991 436.4 918.467 436.793 918.794 437.257C919.301 437.976 919.862 439.549 919.862 442.6H927.862ZM916.662 428.4C911.635 428.4 907.497 430.994 904.291 435.161L910.632 440.039C912.76 437.273 914.755 436.4 916.662 436.4V428.4ZM904.338 435.101C901.257 438.953 898.923 443.867 897.223 449.676L904.901 451.924C906.4 446.799 908.334 442.913 910.585 440.099L904.338 435.101ZM897.149 449.971L883.549 514.171L891.375 515.829L904.975 451.629L897.149 449.971ZM887.462 511H858.662V519H887.462V511ZM862.575 515.83L883.775 415.83L875.949 414.17L854.749 514.17L862.575 515.83ZM879.862 419H908.662V411H879.862V419ZM904.748 414.172L902.548 424.572L910.375 426.228L912.575 415.828L904.748 414.172ZM909.445 428.064C915.455 421.333 922.212 418.2 929.862 418.2V410.2C919.645 410.2 910.802 414.533 903.478 422.736L909.445 428.064ZM929.862 418.2C935.906 418.2 940.242 419.84 943.332 422.724L948.791 416.876C943.881 412.293 937.417 410.2 929.862 410.2V418.2ZM943.332 422.724C946.246 425.444 948.062 429.865 948.062 436.8H956.062C956.062 428.535 953.877 421.623 948.791 416.876L943.332 422.724ZM948.062 436.8C948.062 440.354 947.632 444.425 946.735 449.037L954.588 450.563C955.558 445.575 956.062 440.98 956.062 436.8H948.062ZM946.739 449.016C945.824 453.59 944.509 459.251 942.786 466.012L950.538 467.988C952.281 461.149 953.632 455.343 954.584 450.584L946.739 449.016ZM942.789 466C941.714 470.163 940.707 474.26 939.766 478.291L947.557 480.109C948.483 476.14 949.476 472.104 950.535 468L942.789 466ZM939.745 478.39C938.924 482.358 938.462 485.733 938.462 488.4H946.462C946.462 486.534 946.8 483.776 947.579 480.01L939.745 478.39ZM938.462 488.4C938.462 491.62 939.183 494.71 941.166 497.133L947.358 492.067C946.94 491.557 946.462 490.513 946.462 488.4H938.462ZM941.166 497.133C943.464 499.942 946.991 500.8 950.462 500.8V492.8C948.066 492.8 947.46 492.192 947.358 492.067L941.166 497.133ZM950.462 500.8C955.518 500.8 959.869 498.971 963.099 495.203L957.025 489.997C955.455 491.829 953.406 492.8 950.462 492.8V500.8ZM963.158 495.133C965.935 491.739 968.515 486.837 970.976 480.686L963.548 477.714C961.209 483.563 958.989 487.595 956.966 490.067L963.158 495.133ZM967.262 483.2H975.662V475.2H967.262V483.2ZM971.87 477.925C967.002 492.4 961.58 501.32 956.01 505.639L960.913 511.961C968.41 506.147 974.455 495.334 979.453 480.475L971.87 477.925ZM956.02 505.632C950.199 510.119 944.37 512.2 938.462 512.2V520.2C946.42 520.2 953.925 517.348 960.904 511.968L956.02 505.632ZM989.438 399.6L992.267 396.772L992.267 396.772L989.438 399.6ZM989.438 377.2L992.267 380.028L992.297 379.998L992.326 379.968L989.438 377.2ZM1011.84 377.2L1008.95 379.968L1009.01 380.029L1009.07 380.088L1011.84 377.2ZM1011.84 399.6L1009.07 396.712L1009.04 396.741L1009.01 396.772L1011.84 399.6ZM971.438 510.2L968.562 512.98L968.586 513.004L968.61 513.028L971.438 510.2ZM967.238 479.2L963.325 478.371L963.32 478.393L963.316 478.416L967.238 479.2ZM980.838 415V411H977.597L976.925 414.171L980.838 415ZM1009.64 415L1013.55 415.829L1014.57 411H1009.64V415ZM995.238 483L999.103 484.031L999.13 483.93L999.152 483.829L995.238 483ZM996.238 495.2L993.41 498.028L993.567 498.185L993.74 498.323L996.238 495.2ZM1009.04 495.6L1013.03 495.919L1013.55 489.313L1007.46 491.923L1009.04 495.6ZM1001.84 511L1004.41 514.065L1004.42 514.057L1001.84 511ZM1000.64 400.2C997.282 400.2 994.571 399.076 992.267 396.772L986.61 402.428C990.439 406.257 995.195 408.2 1000.64 408.2V400.2ZM992.267 396.772C989.962 394.467 988.838 391.756 988.838 388.4H980.838C980.838 393.844 982.781 398.599 986.61 402.428L992.267 396.772ZM988.838 388.4C988.838 385.044 989.962 382.333 992.267 380.028L986.61 374.372C982.781 378.201 980.838 382.956 980.838 388.4H988.838ZM992.326 379.968C994.645 377.548 997.338 376.4 1000.64 376.4V368.4C995.139 368.4 990.365 370.452 986.55 374.432L992.326 379.968ZM1000.64 376.4C1003.94 376.4 1006.63 377.548 1008.95 379.968L1014.73 374.432C1010.91 370.452 1006.14 368.4 1000.64 368.4V376.4ZM1009.07 380.088C1011.49 382.406 1012.64 385.099 1012.64 388.4H1020.64C1020.64 382.901 1018.59 378.127 1014.61 374.312L1009.07 380.088ZM1012.64 388.4C1012.64 391.701 1011.49 394.394 1009.07 396.712L1014.61 402.488C1018.59 398.673 1020.64 393.899 1020.64 388.4H1012.64ZM1009.01 396.772C1006.71 399.076 1003.99 400.2 1000.64 400.2V408.2C1006.08 408.2 1010.84 406.257 1014.67 402.428L1009.01 396.772ZM987.038 512.2C981.547 512.2 977.416 510.52 974.267 507.372L968.61 513.028C973.461 517.88 979.729 520.2 987.038 520.2V512.2ZM974.314 507.42C971.432 504.439 969.638 499.617 969.638 492.2H961.638C961.638 500.783 963.711 507.961 968.562 512.98L974.314 507.42ZM969.638 492.2C969.638 489.242 970.118 485.199 971.161 479.984L963.316 478.416C962.226 483.867 961.638 488.491 961.638 492.2H969.638ZM971.151 480.029L984.751 415.829L976.925 414.171L963.325 478.371L971.151 480.029ZM980.838 419H1009.64V411H980.838V419ZM1005.73 414.171L991.325 482.171L999.152 483.829L1013.55 415.829L1005.73 414.171ZM991.373 481.969C990.742 484.336 990.438 486.818 990.438 489.4H998.438C998.438 487.449 998.668 485.664 999.103 484.031L991.373 481.969ZM990.438 489.4C990.438 492.54 991.127 495.746 993.41 498.028L999.067 492.372C998.949 492.254 998.438 491.594 998.438 489.4H990.438ZM993.74 498.323C996.136 500.24 999.387 500.8 1002.64 500.8V492.8C1000.02 492.8 999.008 492.293 998.737 492.077L993.74 498.323ZM1002.64 500.8C1005.48 500.8 1008.17 500.325 1010.61 499.277L1007.46 491.923C1006.18 492.475 1004.59 492.8 1002.64 492.8V500.8ZM1005.05 495.281C1004.58 501.11 1002.55 505.165 999.259 507.943L1004.42 514.057C1009.66 509.635 1012.43 503.424 1013.03 495.919L1005.05 495.281ZM999.268 507.935C995.902 510.758 991.895 512.2 987.038 512.2V520.2C993.648 520.2 999.508 518.175 1004.41 514.065L999.268 507.935ZM1031.64 548.8L1034.22 545.744L1034.21 545.739L1031.64 548.8ZM1026.44 515.2L1029.92 517.161L1029.92 517.161L1026.44 515.2ZM1036.24 505.2L1038.24 508.659L1038.28 508.635L1038.33 508.61L1036.24 505.2ZM1062.04 505.2L1059.49 508.284L1059.52 508.31L1059.55 508.336L1062.04 505.2ZM1064.64 522.8L1061.44 525.2L1064.56 529.368L1067.78 525.271L1064.64 522.8ZM1059.64 519L1057.94 522.625L1057.99 522.645L1058.03 522.665L1059.64 519ZM1043.44 521.6L1040.54 518.845L1040.54 518.845L1043.44 521.6ZM1043.24 542.4L1040.26 545.076L1040.3 545.116L1040.34 545.155L1043.24 542.4ZM1064.64 540.2L1067.75 542.711L1067.75 542.711L1064.64 540.2ZM1072.24 521.8L1068.33 520.917L1068.33 520.942L1068.32 520.966L1072.24 521.8ZM1082.24 477.6L1086.14 478.483L1087.24 473.6H1082.24V477.6ZM1081.44 477.6V473.6H1079.37L1078.17 475.283L1081.44 477.6ZM1068.24 489.2L1066.41 485.641L1066.39 485.65L1066.37 485.66L1068.24 489.2ZM1031.04 487L1028.73 490.27L1028.73 490.27L1031.04 487ZM1017.44 469.4L1013.72 470.875L1013.73 470.914L1013.75 470.952L1017.44 469.4ZM1022.44 402.6L1025.96 404.482L1025.97 404.474L1025.97 404.466L1022.44 402.6ZM1048.84 374L1050.94 377.401L1050.94 377.401L1048.84 374ZM1112.64 371L1110.22 374.192L1110.24 374.204L1110.26 374.215L1112.64 371ZM1118.44 405L1121.55 407.513L1121.55 407.513L1118.44 405ZM1100.24 408.6L1098.45 412.178L1098.49 412.199L1098.53 412.219L1100.24 408.6ZM1094.84 404L1092.62 400.672L1089.14 402.992L1091.61 406.365L1094.84 404ZM1100.84 396.4L1097.23 394.665L1097.22 394.694L1097.2 394.724L1100.84 396.4ZM1099.84 376.4L1097.01 379.228L1097.09 379.312L1097.18 379.39L1099.84 376.4ZM1067.64 383.4L1070.38 386.308L1070.4 386.295L1070.41 386.281L1067.64 383.4ZM1050.24 410.2L1053.95 411.678L1053.95 411.678L1050.24 410.2ZM1048.44 468L1045.01 470.058L1045.02 470.077L1045.03 470.096L1048.44 468ZM1081.24 464.4L1078.01 462.027L1078 462.046L1077.99 462.064L1081.24 464.4ZM1094.64 431.2L1094.67 427.2L1091.45 427.173L1090.74 430.306L1094.64 431.2ZM1118.24 431.4L1122.14 432.249L1123.19 427.442L1118.27 427.4L1118.24 431.4ZM1103.64 498.6L1099.73 497.751L1099.72 497.76L1103.64 498.6ZM1085.44 542.4L1082.38 539.822L1082.37 539.835L1082.36 539.848L1085.44 542.4ZM1055.24 552.4C1046.21 552.4 1039.33 550.066 1034.22 545.744L1029.05 551.856C1035.94 557.668 1044.79 560.4 1055.24 560.4V552.4ZM1034.21 545.739C1029.31 541.617 1026.84 536.235 1026.84 529.2H1018.84C1018.84 538.432 1022.23 546.117 1029.06 551.861L1034.21 545.739ZM1026.84 529.2C1026.84 524.795 1027.87 520.808 1029.92 517.161L1022.95 513.239C1020.2 518.126 1018.84 523.471 1018.84 529.2H1026.84ZM1029.92 517.161C1031.98 513.501 1034.74 510.692 1038.24 508.659L1034.23 501.741C1029.46 504.508 1025.69 508.366 1022.95 513.239L1029.92 517.161ZM1038.33 508.61C1041.82 506.47 1045.63 505.4 1049.84 505.4V497.4C1044.18 497.4 1038.92 498.864 1034.14 501.79L1038.33 508.61ZM1049.84 505.4C1054.23 505.4 1057.32 506.489 1059.49 508.284L1064.58 502.116C1060.62 498.844 1055.57 497.4 1049.84 497.4V505.4ZM1059.55 508.336C1061.78 510.1 1062.84 512.271 1062.84 515.2H1070.84C1070.84 509.863 1068.69 505.367 1064.52 502.064L1059.55 508.336ZM1062.84 515.2C1062.84 517.814 1062.24 519.377 1061.49 520.329L1067.78 525.271C1069.97 522.49 1070.84 518.986 1070.84 515.2H1062.84ZM1067.84 520.4C1066.16 518.163 1063.9 516.5 1061.24 515.335L1058.03 522.665C1059.64 523.367 1060.71 524.237 1061.44 525.2L1067.84 520.4ZM1061.33 515.375C1058.78 514.188 1056.07 513.6 1053.24 513.6V521.6C1054.93 521.6 1056.49 521.945 1057.94 522.625L1061.33 515.375ZM1053.24 513.6C1048.25 513.6 1043.89 515.309 1040.54 518.845L1046.34 524.355C1048.04 522.557 1050.22 521.6 1053.24 521.6V513.6ZM1040.54 518.845C1037.18 522.374 1035.64 526.884 1035.64 532H1043.64C1043.64 528.583 1044.62 526.16 1046.34 524.355L1040.54 518.845ZM1035.64 532C1035.64 537.057 1037.08 541.54 1040.26 545.076L1046.21 539.724C1044.59 537.927 1043.64 535.476 1043.64 532H1035.64ZM1040.34 545.155C1043.64 548.63 1047.82 550.4 1052.64 550.4V542.4C1049.98 542.4 1047.9 541.503 1046.14 539.645L1040.34 545.155ZM1052.64 550.4C1058.69 550.4 1063.77 547.64 1067.75 542.711L1061.52 537.689C1058.83 541.027 1055.92 542.4 1052.64 542.4V550.4ZM1067.75 542.711C1071.64 537.889 1074.35 531.068 1076.15 522.634L1068.32 520.966C1066.65 528.799 1064.3 534.244 1061.52 537.689L1067.75 542.711ZM1076.14 522.683L1086.14 478.483L1078.33 476.717L1068.33 520.917L1076.14 522.683ZM1082.24 473.6H1081.44V481.6H1082.24V473.6ZM1078.17 475.283C1074.92 479.861 1071 483.286 1066.41 485.641L1070.06 492.759C1075.87 489.781 1080.75 485.473 1084.7 479.917L1078.17 475.283ZM1066.37 485.66C1061.92 488.003 1056.97 489.2 1051.44 489.2V497.2C1058.17 497.2 1064.42 495.73 1070.1 492.74L1066.37 485.66ZM1051.44 489.2C1044.46 489.2 1038.48 487.351 1033.34 483.73L1028.73 490.27C1035.33 494.916 1042.94 497.2 1051.44 497.2V489.2ZM1033.34 483.73C1028.17 480.09 1024.08 474.862 1021.12 467.848L1013.75 470.952C1017.2 479.138 1022.16 485.644 1028.73 490.27L1033.34 483.73ZM1021.15 467.925C1018.31 460.752 1016.84 452.335 1016.84 442.6H1008.84C1008.84 453.131 1010.43 462.582 1013.72 470.875L1021.15 467.925ZM1016.84 442.6C1016.84 428.537 1019.9 415.858 1025.96 404.482L1018.91 400.718C1012.17 413.342 1008.84 427.33 1008.84 442.6H1016.84ZM1025.97 404.466C1032.06 392.936 1040.37 383.944 1050.94 377.401L1046.73 370.599C1034.9 377.923 1025.62 387.998 1018.9 400.734L1025.97 404.466ZM1050.94 377.401C1061.49 370.868 1073.09 367.6 1085.84 367.6V359.6C1071.64 359.6 1058.58 363.265 1046.73 370.599L1050.94 377.401ZM1085.84 367.6C1096.63 367.6 1104.61 369.951 1110.22 374.192L1115.05 367.808C1107.6 362.182 1097.71 359.6 1085.84 359.6V367.6ZM1110.26 374.215C1115.87 378.369 1118.64 383.892 1118.64 391.2H1126.64C1126.64 381.442 1122.73 373.498 1115.01 367.785L1110.26 374.215ZM1118.64 391.2C1118.64 396.285 1117.4 399.914 1115.32 402.487L1121.55 407.513C1125.07 403.153 1126.64 397.582 1126.64 391.2H1118.64ZM1115.32 402.487C1113.3 404.994 1110.78 406.2 1107.44 406.2V414.2C1113.15 414.2 1117.97 411.939 1121.55 407.513L1115.32 402.487ZM1107.44 406.2C1105.48 406.2 1103.67 405.794 1101.94 404.981L1098.53 412.219C1101.34 413.54 1104.32 414.2 1107.44 414.2V406.2ZM1102.02 405.022C1100.48 404.251 1099.17 403.143 1098.06 401.635L1091.61 406.365C1093.44 408.857 1095.72 410.815 1098.45 412.178L1102.02 405.022ZM1097.05 407.328C1100.24 405.206 1102.66 402.002 1104.47 398.076L1097.2 394.724C1095.82 397.731 1094.23 399.594 1092.62 400.672L1097.05 407.328ZM1104.44 398.135C1106.4 394.054 1107.44 389.864 1107.44 385.6H1099.44C1099.44 388.536 1098.73 391.546 1097.23 394.665L1104.44 398.135ZM1107.44 385.6C1107.44 380.76 1105.95 376.483 1102.49 373.41L1097.18 379.39C1098.52 380.584 1099.44 382.44 1099.44 385.6H1107.44ZM1102.66 373.572C1099.42 370.332 1095 369 1090.04 369V377C1093.6 377 1095.71 377.935 1097.01 379.228L1102.66 373.572ZM1090.04 369C1080.99 369 1072.58 373.086 1064.86 380.519L1070.41 386.281C1077.09 379.848 1083.61 377 1090.04 377V369ZM1064.89 380.492C1057.19 387.765 1051.09 397.222 1046.52 408.722L1053.95 411.678C1058.18 401.045 1063.68 392.635 1070.38 386.308L1064.89 380.492ZM1046.52 408.722C1041.93 420.268 1039.64 432.37 1039.64 445H1047.64C1047.64 433.363 1049.74 422.265 1053.95 411.678L1046.52 408.722ZM1039.64 445C1039.64 455.327 1041.27 463.833 1045.01 470.058L1051.87 465.942C1049.2 461.5 1047.64 454.673 1047.64 445H1039.64ZM1045.03 470.096C1048.94 476.454 1054.82 479.8 1062.24 479.8V471.8C1057.65 471.8 1054.33 469.946 1051.84 465.904L1045.03 470.096ZM1062.24 479.8C1071.1 479.8 1078.51 475.035 1084.48 466.736L1077.99 462.064C1073.02 468.965 1067.77 471.8 1062.24 471.8V479.8ZM1084.46 466.773C1090.51 458.55 1095.14 446.886 1098.53 432.094L1090.74 430.306C1087.46 444.58 1083.16 455.05 1078.01 462.027L1084.46 466.773ZM1094.6 435.2L1118.2 435.4L1118.27 427.4L1094.67 427.2L1094.6 435.2ZM1114.33 430.551L1099.73 497.751L1107.54 499.449L1122.14 432.249L1114.33 430.551ZM1099.72 497.76C1095.51 517.362 1089.63 531.218 1082.38 539.822L1088.49 544.978C1096.97 534.915 1103.22 519.572 1107.55 499.44L1099.72 497.76ZM1082.36 539.848C1075.4 548.24 1066.48 552.4 1055.24 552.4V560.4C1068.79 560.4 1080 555.227 1088.52 544.952L1082.36 539.848ZM1130.06 508.6L1127.3 511.498L1127.32 511.516L1127.34 511.534L1130.06 508.6ZM1127.26 454L1131.06 455.237L1131.06 455.237L1127.26 454ZM1144.86 425.4L1147.67 428.252L1147.68 428.24L1147.69 428.228L1144.86 425.4ZM1191.46 453L1194.77 455.251L1194.77 455.251L1191.46 453ZM1174.46 468.2L1176.33 471.737L1176.35 471.723L1176.38 471.709L1174.46 468.2ZM1151.86 474.6L1151.59 470.609L1148.19 470.836L1147.88 474.238L1151.86 474.6ZM1187.46 486.6L1191.4 487.318L1193.47 475.943L1184.81 483.604L1187.46 486.6ZM1153.26 465L1149.35 464.159L1148.28 469.132L1153.37 468.999L1153.26 465ZM1167.46 460L1165.15 456.732L1165.13 456.748L1165.11 456.765L1167.46 460ZM1178.26 447.8L1174.76 445.865L1174.75 445.882L1174.74 445.898L1178.26 447.8ZM1163.46 436.6L1159.95 434.681L1159.95 434.69L1159.94 434.7L1163.46 436.6ZM1152.86 512.2C1143.82 512.2 1137.3 509.859 1132.78 505.666L1127.34 511.534C1133.75 517.475 1142.44 520.2 1152.86 520.2V512.2ZM1132.82 505.702C1128.44 501.542 1125.86 494.734 1125.86 484.4H1117.86C1117.86 495.932 1120.74 505.258 1127.3 511.498L1132.82 505.702ZM1125.86 484.4C1125.86 475.714 1127.56 466.005 1131.06 455.237L1123.46 452.763C1119.76 464.128 1117.86 474.686 1117.86 484.4H1125.86ZM1131.06 455.237C1134.47 444.768 1140 435.792 1147.67 428.252L1142.06 422.548C1133.45 431.008 1127.25 441.098 1123.46 452.763L1131.06 455.237ZM1147.69 428.228C1155 420.916 1164.28 417.2 1175.86 417.2V409.2C1162.37 409.2 1150.99 413.617 1142.03 422.572L1147.69 428.228ZM1175.86 417.2C1182.7 417.2 1187.08 418.704 1189.73 421.014C1192.27 423.232 1193.86 426.769 1193.86 432.4H1201.86C1201.86 425.231 1199.78 419.168 1194.99 414.986C1190.3 410.896 1183.69 409.2 1175.86 409.2V417.2ZM1193.86 432.4C1193.86 439.051 1191.98 445.135 1188.15 450.749L1194.77 455.251C1199.48 448.332 1201.86 440.683 1201.86 432.4H1193.86ZM1188.15 450.749C1184.27 456.46 1179.09 461.109 1172.54 464.691L1176.38 471.709C1183.97 467.558 1190.12 462.073 1194.77 455.251L1188.15 450.749ZM1172.59 464.663C1166.02 468.133 1159.04 470.113 1151.59 470.609L1152.13 478.591C1160.68 478.021 1168.76 475.733 1176.33 471.737L1172.59 464.663ZM1147.88 474.238C1147.61 477.152 1147.46 479.326 1147.46 480.6H1155.46C1155.46 479.741 1155.58 477.914 1155.84 474.962L1147.88 474.238ZM1147.46 480.6C1147.46 486.515 1148.54 491.681 1151.36 495.444C1154.33 499.426 1158.74 501.2 1163.86 501.2V493.2C1160.71 493.2 1158.92 492.207 1157.76 490.656C1156.44 488.886 1155.46 485.751 1155.46 480.6H1147.46ZM1163.86 501.2C1168.31 501.2 1172.89 500.008 1177.56 497.822L1174.16 490.578C1170.29 492.392 1166.87 493.2 1163.86 493.2V501.2ZM1177.56 497.822C1182.16 495.663 1186.35 492.92 1190.11 489.596L1184.81 483.604C1181.63 486.413 1178.09 488.737 1174.16 490.578L1177.56 497.822ZM1183.53 485.882C1181.84 495.137 1178.38 501.593 1173.51 505.76C1168.65 509.916 1161.92 512.2 1152.86 512.2V520.2C1163.27 520.2 1172.03 517.551 1178.71 511.84C1185.37 506.14 1189.48 497.796 1191.4 487.318L1183.53 485.882ZM1153.37 468.999C1159.3 468.842 1164.81 466.874 1169.81 463.235L1165.11 456.765C1161.31 459.526 1157.35 460.891 1153.15 461.001L1153.37 468.999ZM1169.77 463.268C1174.81 459.708 1178.82 455.172 1181.78 449.702L1174.74 445.898C1172.36 450.295 1169.18 453.892 1165.15 456.732L1169.77 463.268ZM1181.76 449.735C1184.87 444.112 1186.46 438.183 1186.46 432H1178.46C1178.46 436.75 1177.25 441.355 1174.76 445.865L1181.76 449.735ZM1186.46 432C1186.46 428.99 1186.02 426.063 1184.63 423.768C1183.03 421.151 1180.45 419.8 1177.46 419.8V427.8C1177.74 427.8 1177.79 427.853 1177.73 427.822C1177.67 427.788 1177.7 427.772 1177.79 427.932C1178.06 428.371 1178.46 429.543 1178.46 432H1186.46ZM1177.46 419.8C1173.82 419.8 1170.57 421.483 1167.76 424.048C1164.98 426.593 1162.39 430.212 1159.95 434.681L1166.97 438.519C1169.19 434.454 1171.28 431.673 1173.16 429.952C1175.02 428.25 1176.43 427.8 1177.46 427.8V419.8ZM1159.94 434.7C1155.21 443.472 1151.69 453.302 1149.35 464.159L1157.17 465.841C1159.37 455.631 1162.65 446.528 1166.98 438.5L1159.94 434.7ZM669.226 582.6L673.137 583.439L674.175 578.6H669.226V582.6ZM639.026 591.6L641.698 594.576L641.702 594.573L639.026 591.6ZM630.626 633.4L627.001 635.092L627.024 635.141L627.048 635.189L630.626 633.4ZM632.026 636.6V640.6H636.026V636.6H632.026ZM615.826 632.2L613.175 635.196L613.236 635.25L613.299 635.301L615.826 632.2ZM617.626 591.4L621.051 593.467L621.058 593.454L621.066 593.441L617.626 591.4ZM639.826 572.4L638.132 568.776L638.123 568.781L638.113 568.785L639.826 572.4ZM707.226 567.6L707.903 563.658L707.877 563.653L707.85 563.649L707.226 567.6ZM753.226 565.6L757.224 565.723L757.412 559.595L751.728 561.891L753.226 565.6ZM746.626 584.8L749.454 587.628L749.454 587.628L746.626 584.8ZM715.426 590L714.808 593.952L714.808 593.952L715.426 590ZM697.226 586.6L698.023 582.68L694.146 581.892L693.315 585.759L697.226 586.6ZM669.626 715V719H672.857L673.536 715.841L669.626 715ZM640.826 715L636.915 714.161L635.877 719H640.826V715ZM669.226 578.6H666.826V586.6H669.226V578.6ZM666.826 578.6C654.297 578.6 643.962 581.776 636.35 588.627L641.702 594.573C647.423 589.424 655.622 586.6 666.826 586.6V578.6ZM636.353 588.624C628.534 595.645 625.226 607.569 625.226 623H633.226C633.226 608.297 636.451 599.288 641.698 594.576L636.353 588.624ZM625.226 623C625.226 627.969 625.663 632.224 627.001 635.092L634.251 631.708C633.722 630.576 633.226 627.898 633.226 623H625.226ZM627.048 635.189C627.504 636.101 627.819 636.763 628.011 637.203C628.11 637.428 628.152 637.541 628.163 637.571C628.168 637.587 628.149 637.534 628.123 637.433C628.11 637.38 628.089 637.289 628.07 637.169C628.052 637.058 628.026 636.857 628.026 636.6H636.026C636.026 635.763 635.753 635.041 635.714 634.929C635.608 634.626 635.475 634.305 635.34 633.997C635.066 633.37 634.681 632.566 634.203 631.611L627.048 635.189ZM632.026 632.6C625.266 632.6 620.939 631.207 618.352 629.099L613.299 635.301C617.913 639.06 624.385 640.6 632.026 640.6V632.6ZM618.476 629.204C616.221 627.209 614.626 623.563 614.626 617.2H606.626C606.626 624.704 608.498 631.058 613.175 635.196L618.476 629.204ZM614.626 617.2C614.626 608.425 616.779 600.546 621.051 593.467L614.201 589.333C609.14 597.721 606.626 607.042 606.626 617.2H614.626ZM621.066 593.441C625.243 586.4 631.961 580.552 641.538 576.015L638.113 568.785C627.424 573.848 619.342 580.666 614.186 589.359L621.066 593.441ZM641.52 576.024C651.092 571.548 663.465 569.2 678.826 569.2V561.2C662.72 561.2 649.093 563.652 638.132 568.776L641.52 576.024ZM678.826 569.2C687.386 569.2 696.642 569.978 706.602 571.551L707.85 563.649C697.543 562.022 687.866 561.2 678.826 561.2V569.2ZM706.548 571.542C715.243 573.037 723.077 573.8 730.026 573.8V565.8C723.642 565.8 716.275 565.097 707.903 563.658L706.548 571.542ZM730.026 573.8C739.001 573.8 747.252 572.326 754.724 569.309L751.728 561.891C745.333 564.474 738.118 565.8 730.026 565.8V573.8ZM749.228 565.477C748.977 573.61 746.929 578.84 743.797 581.972L749.454 587.628C754.589 582.493 756.941 574.924 757.224 565.723L749.228 565.477ZM743.797 581.972C740.668 585.101 735.721 587 728.226 587V595C736.998 595 744.317 592.765 749.454 587.628L743.797 581.972ZM728.226 587C724.168 587 720.108 586.683 716.043 586.048L714.808 593.952C719.277 594.65 723.75 595 728.226 595V587ZM716.043 586.048C711.868 585.395 705.871 584.277 698.023 582.68L696.429 590.52C704.314 592.123 710.451 593.271 714.808 593.952L716.043 586.048ZM693.315 585.759L665.715 714.159L673.536 715.841L701.136 587.441L693.315 585.759ZM669.626 711H640.826V719H669.626V711ZM644.737 715.839L673.137 583.439L665.315 581.761L636.915 714.161L644.737 715.839ZM711.315 708.6L708.558 711.498L708.577 711.516L708.596 711.534L711.315 708.6ZM708.515 654L712.319 655.237L712.319 655.237L708.515 654ZM726.115 625.4L728.92 628.252L728.932 628.24L728.943 628.228L726.115 625.4ZM772.715 653L776.021 655.251L776.021 655.251L772.715 653ZM755.715 668.2L757.583 671.737L757.609 671.723L757.635 671.709L755.715 668.2ZM733.115 674.6L732.849 670.609L729.357 670.842L729.124 674.334L733.115 674.6ZM736.115 696L733.207 698.746L733.246 698.788L733.286 698.828L736.115 696ZM765.515 694.4L763.356 691.032L763.336 691.045L763.316 691.058L765.515 694.4ZM782.515 679.2V675.2H780.736L779.545 676.521L782.515 679.2ZM789.315 679.2L792.745 681.258L796.38 675.2H789.315V679.2ZM734.715 665L730.783 664.263L729.845 669.269L734.931 668.994L734.715 665ZM748.715 659.8L746.408 656.532L746.385 656.548L746.362 656.565L748.715 659.8ZM759.515 647.6L756.036 645.626L756.016 645.662L755.996 645.698L759.515 647.6ZM744.515 636.4L741.018 634.457L741.006 634.479L740.995 634.5L744.515 636.4ZM734.315 712.2C725.122 712.2 718.548 709.85 714.034 705.666L708.596 711.534C715.015 717.483 723.774 720.2 734.315 720.2V712.2ZM714.072 705.702C709.698 701.542 707.115 694.734 707.115 684.4H699.115C699.115 695.932 701.998 705.258 708.558 711.498L714.072 705.702ZM707.115 684.4C707.115 675.714 708.816 666.005 712.319 655.237L704.711 652.763C701.014 664.128 699.115 674.686 699.115 684.4H707.115ZM712.319 655.237C715.724 644.768 721.254 635.792 728.92 628.252L723.31 622.548C714.709 631.008 708.505 641.098 704.711 652.763L712.319 655.237ZM728.943 628.228C736.255 620.916 745.538 617.2 757.115 617.2V609.2C743.625 609.2 732.241 613.617 723.286 622.572L728.943 628.228ZM757.115 617.2C763.955 617.2 768.338 618.704 770.985 621.014C773.527 623.232 775.115 626.769 775.115 632.4H783.115C783.115 625.231 781.036 619.168 776.245 614.986C771.558 610.896 764.941 609.2 757.115 609.2V617.2ZM775.115 632.4C775.115 639.051 773.231 645.135 769.408 650.749L776.021 655.251C780.732 648.332 783.115 640.683 783.115 632.4H775.115ZM769.408 650.749C765.52 656.46 760.342 661.109 753.795 664.691L757.635 671.709C765.221 667.558 771.376 662.073 776.021 655.251L769.408 650.749ZM753.846 664.663C747.278 668.133 740.291 670.113 732.849 670.609L733.381 678.591C741.939 678.021 750.019 675.733 757.583 671.737L753.846 664.663ZM729.124 674.334C728.859 678.311 728.715 681.111 728.715 682.6H736.715C736.715 681.422 736.838 678.889 737.106 674.866L729.124 674.334ZM728.715 682.6C728.715 689.289 729.812 695.152 733.207 698.746L739.023 693.254C737.885 692.048 736.715 688.977 736.715 682.6H728.715ZM733.286 698.828C736.639 702.181 741.583 703.4 747.115 703.4V695.4C742.513 695.4 740.124 694.352 738.943 693.172L733.286 698.828ZM747.115 703.4C754.948 703.4 761.88 701.58 767.713 697.742L763.316 691.058C759.017 693.887 753.682 695.4 747.115 695.4V703.4ZM767.674 697.768C773.28 694.173 779.216 688.829 785.485 681.879L779.545 676.521C773.547 683.171 768.15 687.96 763.356 691.032L767.674 697.768ZM782.515 683.2H789.315V675.2H782.515V683.2ZM785.885 677.142C771.549 701.036 754.337 712.2 734.315 712.2V720.2C758.026 720.2 777.481 706.698 792.745 681.258L785.885 677.142ZM734.931 668.994C740.712 668.682 746.109 666.641 751.068 663.035L746.362 656.565C742.521 659.359 738.585 660.785 734.499 661.006L734.931 668.994ZM751.022 663.068C756.064 659.508 760.077 654.972 763.034 649.502L755.996 645.698C753.619 650.095 750.432 653.692 746.408 656.532L751.022 663.068ZM762.994 649.574C766.122 644.063 767.715 638.185 767.715 632H759.715C759.715 636.748 758.508 641.271 756.036 645.626L762.994 649.574ZM767.715 632C767.715 628.99 767.279 626.063 765.88 623.768C764.285 621.151 761.706 619.8 758.715 619.8V627.8C758.992 627.8 759.04 627.853 758.984 627.822C758.92 627.788 758.952 627.772 759.05 627.932C759.317 628.371 759.715 629.543 759.715 632H767.715ZM758.715 619.8C755.06 619.8 751.771 621.419 748.91 623.958C746.078 626.471 743.469 630.046 741.018 634.457L748.011 638.343C750.227 634.354 752.318 631.629 754.22 629.942C756.092 628.281 757.57 627.8 758.715 627.8V619.8ZM740.995 634.5C736.24 643.31 732.849 653.244 730.783 664.263L738.646 665.737C740.58 655.422 743.723 646.29 748.035 638.3L740.995 634.5ZM886.073 709.8L883.023 712.388L883.065 712.438L883.109 712.486L886.073 709.8ZM881.473 684.2L885.401 684.955L885.403 684.942L885.406 684.928L881.473 684.2ZM883.473 673.8L879.583 672.866L879.565 672.941L879.55 673.016L883.473 673.8ZM885.073 667.4L888.919 668.499L888.948 668.396L888.972 668.291L885.073 667.4ZM888.073 653.6L884.155 652.793L884.155 652.793L888.073 653.6ZM873.073 637.6L876.196 640.099L876.22 640.069L876.243 640.039L873.073 637.6ZM866.673 650.8L862.834 649.676L862.791 649.822L862.76 649.971L866.673 650.8ZM853.073 715V719H856.314L856.986 715.829L853.073 715ZM824.273 715L820.359 714.172L819.338 719H824.273V715ZM838.873 646L834.992 645.03L834.974 645.101L834.959 645.172L838.873 646ZM823.673 637.4L820.561 634.887L820.555 634.894L820.549 634.901L823.673 637.4ZM817.273 650.8L813.427 649.701L813.388 649.835L813.359 649.971L817.273 650.8ZM803.673 715V719H806.914L807.586 715.829L803.673 715ZM774.873 715L770.96 714.17L769.936 719H774.873V715ZM796.073 615V611H792.832L792.16 614.17L796.073 615ZM824.873 615L828.786 615.828L829.807 611H824.873V615ZM822.673 625.4L818.759 624.572L815.656 639.241L825.654 628.067L822.673 625.4ZM867.673 631.2L863.732 631.887L865.486 641.942L871.031 633.373L867.673 631.2ZM911.673 619.8L908.943 622.724L908.943 622.724L911.673 619.8ZM916.273 649.8L920.195 650.584L920.197 650.574L920.199 650.563L916.273 649.8ZM912.273 667L916.146 668L916.149 667.988L912.273 667ZM909.273 679.2L905.377 678.291L905.366 678.34L905.356 678.39L909.273 679.2ZM909.873 694.6L906.777 697.133L909.873 694.6ZM925.673 692.6L928.71 695.203L928.739 695.168L928.768 695.133L925.673 692.6ZM932.873 679.2V675.2H930.165L929.159 677.714L932.873 679.2ZM941.273 679.2L945.064 680.475L946.838 675.2H941.273V679.2ZM924.073 708.8L926.515 711.968L926.524 711.961L924.073 708.8ZM904.073 712.2C896.59 712.2 891.874 710.245 889.037 707.114L883.109 712.486C888.004 717.888 895.289 720.2 904.073 720.2V712.2ZM889.123 707.212C886.071 703.615 884.473 699.163 884.473 693.6H876.473C876.473 700.837 878.608 707.185 883.023 712.388L889.123 707.212ZM884.473 693.6C884.473 691.109 884.77 688.234 885.401 684.955L877.545 683.445C876.842 687.099 876.473 690.491 876.473 693.6H884.473ZM885.406 684.928C886.069 681.346 886.732 677.898 887.395 674.584L879.55 673.016C878.88 676.369 878.209 679.854 877.54 683.472L885.406 684.928ZM887.362 674.733C888.168 671.376 888.68 669.333 888.919 668.499L881.227 666.301C880.932 667.333 880.377 669.557 879.583 672.866L887.362 674.733ZM888.972 668.291C890.045 663.597 891.051 658.969 891.99 654.407L884.155 652.793C883.228 657.297 882.234 661.869 881.173 666.509L888.972 668.291ZM891.99 654.407C892.948 649.756 893.473 645.789 893.473 642.6H885.473C885.473 645.011 885.064 648.378 884.155 652.793L891.99 654.407ZM893.473 642.6C893.473 638.851 892.833 635.324 890.941 632.643C888.868 629.707 885.743 628.4 882.273 628.4V636.4C883.602 636.4 884.078 636.793 884.405 637.257C884.912 637.976 885.473 639.549 885.473 642.6H893.473ZM882.273 628.4C877.246 628.4 873.108 630.994 869.902 635.161L876.243 640.039C878.371 637.273 880.366 636.4 882.273 636.4V628.4ZM869.949 635.101C866.867 638.953 864.534 643.867 862.834 649.676L870.512 651.924C872.011 646.799 873.945 642.913 876.196 640.099L869.949 635.101ZM862.76 649.971L849.159 714.171L856.986 715.829L870.586 651.629L862.76 649.971ZM853.073 711H824.273V719H853.073V711ZM828.186 715.828L842.786 646.828L834.959 645.172L820.359 714.172L828.186 715.828ZM842.753 646.97C843.236 645.037 843.473 643.044 843.473 641H835.473C835.473 642.423 835.309 643.763 834.992 645.03L842.753 646.97ZM843.473 641C843.473 637.737 842.939 634.584 841.278 632.147C839.429 629.435 836.6 628.2 833.473 628.2V636.2C833.983 636.2 834.236 636.292 834.341 636.344C834.428 636.386 834.533 636.456 834.668 636.653C835.006 637.15 835.473 638.396 835.473 641H843.473ZM833.473 628.2C828.293 628.2 823.957 630.682 820.561 634.887L826.784 639.913C828.988 637.185 831.186 636.2 833.473 636.2V628.2ZM820.549 634.901C817.454 638.77 815.122 643.765 813.427 649.701L821.119 651.899C822.623 646.635 824.558 642.697 826.796 639.899L820.549 634.901ZM813.359 649.971L799.759 714.171L807.586 715.829L821.186 651.629L813.359 649.971ZM803.673 711H774.873V719H803.673V711ZM778.786 715.83L799.986 615.83L792.16 614.17L770.96 714.17L778.786 715.83ZM796.073 619H824.873V611H796.073V619ZM820.959 614.172L818.759 624.572L826.586 626.228L828.786 615.828L820.959 614.172ZM825.654 628.067C831.761 621.242 838.839 618 847.073 618V610C836.373 610 827.185 614.358 819.692 622.733L825.654 628.067ZM847.073 618C852.298 618 855.943 619.27 858.459 621.37C860.971 623.468 862.845 626.801 863.732 631.887L871.613 630.513C870.5 624.133 867.941 618.866 863.586 615.23C859.235 611.597 853.581 610 847.073 610V618ZM871.031 633.373C877.802 622.909 885.922 618.2 895.473 618.2V610.2C882.623 610.2 872.21 616.824 864.314 629.027L871.031 633.373ZM895.473 618.2C901.517 618.2 905.853 619.84 908.943 622.724L914.402 616.876C909.492 612.293 903.028 610.2 895.473 610.2V618.2ZM908.943 622.724C911.857 625.444 913.673 629.865 913.673 636.8H921.673C921.673 628.535 919.488 621.623 914.402 616.876L908.943 622.724ZM913.673 636.8C913.673 640.354 913.243 644.425 912.346 649.037L920.199 650.563C921.169 645.575 921.673 640.98 921.673 636.8H913.673ZM912.35 649.016C911.435 653.59 910.12 659.251 908.397 666.012L916.149 667.988C917.892 661.149 919.243 655.343 920.195 650.584L912.35 649.016ZM908.4 666C907.325 670.163 906.318 674.26 905.377 678.291L913.168 680.109C914.094 676.14 915.087 672.104 916.146 668L908.4 666ZM905.356 678.39C904.535 682.358 904.073 685.733 904.073 688.4H912.073C912.073 686.534 912.411 683.776 913.19 680.01L905.356 678.39ZM904.073 688.4C904.073 691.62 904.794 694.71 906.777 697.133L912.968 692.067C912.551 691.557 912.073 690.513 912.073 688.4H904.073ZM906.777 697.133C909.075 699.942 912.602 700.8 916.073 700.8V692.8C913.677 692.8 913.071 692.192 912.968 692.067L906.777 697.133ZM916.073 700.8C921.129 700.8 925.48 698.971 928.71 695.203L922.636 689.997C921.065 691.829 919.017 692.8 916.073 692.8V700.8ZM928.768 695.133C931.546 691.739 934.126 686.837 936.587 680.686L929.159 677.714C926.819 683.563 924.6 687.595 922.577 690.067L928.768 695.133ZM932.873 683.2H941.273V675.2H932.873V683.2ZM937.481 677.925C932.613 692.4 927.191 701.32 921.621 705.639L926.524 711.961C934.021 706.147 940.066 695.334 945.064 680.475L937.481 677.925ZM921.631 705.632C915.81 710.119 909.981 712.2 904.073 712.2V720.2C912.031 720.2 919.535 717.348 926.515 711.968L921.631 705.632ZM948.063 607.6V603.6H944.823L944.15 606.77L948.063 607.6ZM976.863 607.6L980.775 608.435L981.807 603.6H976.863V607.6ZM973.663 622.6L969.751 621.765L967.276 633.369L976.271 625.633L973.663 622.6ZM1014.86 621.4L1017.85 618.738L1017.85 618.738L1014.86 621.4ZM1016.86 677.6L1020.71 678.705L1020.71 678.693L1016.86 677.6ZM1001.26 705L1004.12 707.803L1004.13 707.79L1004.14 707.777L1001.26 705ZM955.263 709L958.718 706.985L953.507 698.051L951.351 708.166L955.263 709ZM944.863 757.8L945.791 761.691L948.249 761.105L948.775 758.634L944.863 757.8ZM914.663 765L910.75 764.17L909.437 770.358L915.591 768.891L914.663 765ZM981.863 689.8L978.603 687.482L978.586 687.506L978.569 687.531L981.863 689.8ZM991.063 668.4L987.172 667.474L987.167 667.496L987.162 667.519L991.063 668.4ZM976.663 631L974.405 627.699L974.363 627.727L974.321 627.757L976.663 631ZM970.263 638.2L966.846 636.12L966.49 636.705L966.349 637.375L970.263 638.2ZM958.463 694.2L954.549 693.375L954.32 694.464L954.685 695.514L958.463 694.2ZM948.063 611.6H976.863V603.6H948.063V611.6ZM972.951 606.765L969.751 621.765L977.575 623.435L980.775 608.435L972.951 606.765ZM976.271 625.633C982.2 620.534 989.07 618 997.063 618V610C987.19 610 978.46 613.199 971.055 619.567L976.271 625.633ZM997.063 618C1003.55 618 1008.34 620.095 1011.88 624.062L1017.85 618.738C1012.59 612.838 1005.51 610 997.063 610V618ZM1011.88 624.062C1015.3 627.9 1017.46 634.752 1017.46 645.6H1025.46C1025.46 634.048 1023.23 624.767 1017.85 618.738L1011.88 624.062ZM1017.46 645.6C1017.46 655.74 1015.99 666.039 1013.02 676.507L1020.71 678.693C1023.87 667.561 1025.46 656.526 1025.46 645.6H1017.46ZM1013.02 676.495C1010.12 686.567 1005.24 695.117 998.385 702.223L1004.14 707.777C1011.95 699.683 1017.47 689.967 1020.71 678.705L1013.02 676.495ZM998.409 702.197C991.94 708.784 983.361 712.2 972.263 712.2V720.2C985.165 720.2 995.92 716.149 1004.12 707.803L998.409 702.197ZM972.263 712.2C964.334 712.2 960.468 709.983 958.718 706.985L951.808 711.015C955.659 717.617 963.126 720.2 972.263 720.2V712.2ZM951.351 708.166L940.951 756.966L948.775 758.634L959.175 709.834L951.351 708.166ZM943.936 753.909L913.736 761.109L915.591 768.891L945.791 761.691L943.936 753.909ZM918.576 765.83L951.976 608.43L944.15 606.77L910.75 764.17L918.576 765.83ZM966.063 702.8C973.977 702.8 980.397 698.979 985.157 692.069L978.569 687.531C975.062 692.621 970.949 694.8 966.063 694.8V702.8ZM985.123 692.118C989.74 685.626 992.999 677.987 994.965 669.281L987.162 667.519C985.394 675.346 982.52 681.974 978.603 687.482L985.123 692.118ZM994.955 669.326C997.013 660.681 998.063 652.567 998.063 645H990.063C990.063 651.833 989.114 659.319 987.172 667.474L994.955 669.326ZM998.063 645C998.063 639.196 997.212 634.176 994.99 630.486C992.571 626.472 988.744 624.4 984.063 624.4V632.4C986.049 632.4 987.222 633.095 988.137 634.614C989.247 636.458 990.063 639.738 990.063 645H998.063ZM984.063 624.4C980.659 624.4 977.418 625.637 974.405 627.699L978.922 634.301C980.975 632.896 982.668 632.4 984.063 632.4V624.4ZM974.321 627.757C971.408 629.862 968.933 632.693 966.846 636.12L973.68 640.28C975.327 637.574 977.119 635.605 979.005 634.243L974.321 627.757ZM966.349 637.375L954.549 693.375L962.377 695.025L974.177 639.025L966.349 637.375ZM954.685 695.514C955.493 697.837 956.95 699.775 959.092 701.072C961.166 702.327 963.581 702.8 966.063 702.8V694.8C964.546 694.8 963.694 694.506 963.234 694.228C962.843 693.991 962.5 693.63 962.241 692.886L954.685 695.514ZM1030.62 710.2L1027.74 712.98L1027.77 713.004L1027.79 713.028L1030.62 710.2ZM1026.42 679.2L1022.51 678.365L1022.5 678.39L1022.5 678.416L1026.42 679.2ZM1047.82 579L1047.28 575.036L1044.49 575.413L1043.91 578.165L1047.82 579ZM1077.42 575L1081.33 575.833L1082.51 570.275L1076.88 571.036L1077.42 575ZM1054.42 683L1058.28 684.031L1058.31 683.933L1058.33 683.833L1054.42 683ZM1055.42 695.2L1052.59 698.028L1052.75 698.185L1052.92 698.323L1055.42 695.2ZM1072.62 692L1075.39 694.886L1075.42 694.857L1075.45 694.828L1072.62 692ZM1079.82 679.2V675.2H1076.79L1075.97 678.114L1079.82 679.2ZM1088.22 679.2L1092 680.496L1093.82 675.2H1088.22V679.2ZM1069.22 708.6L1071.41 711.946L1071.43 711.933L1071.45 711.919L1069.22 708.6ZM1046.22 712.2C1040.73 712.2 1036.6 710.52 1033.45 707.372L1027.79 713.028C1032.64 717.88 1038.91 720.2 1046.22 720.2V712.2ZM1033.49 707.42C1030.61 704.439 1028.82 699.617 1028.82 692.2H1020.82C1020.82 700.783 1022.89 707.961 1027.74 712.98L1033.49 707.42ZM1028.82 692.2C1028.82 689.242 1029.3 685.199 1030.34 679.984L1022.5 678.416C1021.41 683.867 1020.82 688.491 1020.82 692.2H1028.82ZM1030.33 680.035L1051.73 579.835L1043.91 578.165L1022.51 678.365L1030.33 680.035ZM1048.35 582.964L1077.95 578.964L1076.88 571.036L1047.28 575.036L1048.35 582.964ZM1073.51 574.167L1050.51 682.167L1058.33 683.833L1081.33 575.833L1073.51 574.167ZM1050.55 681.969C1049.92 684.336 1049.62 686.818 1049.62 689.4H1057.62C1057.62 687.449 1057.85 685.664 1058.28 684.031L1050.55 681.969ZM1049.62 689.4C1049.62 692.54 1050.31 695.746 1052.59 698.028L1058.25 692.372C1058.13 692.254 1057.62 691.594 1057.62 689.4H1049.62ZM1052.92 698.323C1055.32 700.24 1058.57 700.8 1061.82 700.8V692.8C1059.2 692.8 1058.19 692.293 1057.92 692.077L1052.92 698.323ZM1061.82 700.8C1066.91 700.8 1071.46 698.652 1075.39 694.886L1069.85 689.114C1067.1 691.748 1064.46 692.8 1061.82 692.8V700.8ZM1075.45 694.828C1079.33 690.944 1082.04 686.047 1083.67 680.286L1075.97 678.114C1074.66 682.753 1072.57 686.389 1069.79 689.172L1075.45 694.828ZM1079.82 683.2H1088.22V675.2H1079.82V683.2ZM1084.43 677.904C1079.62 691.959 1073.66 700.79 1066.99 705.281L1071.45 711.919C1080.24 706.01 1086.95 695.241 1092 680.496L1084.43 677.904ZM1067.03 705.254C1059.8 709.987 1052.88 712.2 1046.22 712.2V720.2C1054.75 720.2 1063.17 717.346 1071.41 711.946L1067.03 705.254ZM1084.74 708.4L1081.87 711.191L1081.87 711.191L1084.74 708.4ZM1082.94 653L1079.18 651.626L1079.18 651.639L1079.17 651.652L1082.94 653ZM1100.54 625.4L1103.32 628.278L1103.32 628.277L1100.54 625.4ZM1140.74 616.8L1143.03 613.523L1143.03 613.523L1140.74 616.8ZM1144.74 625.6H1140.74L1148.65 626.413L1144.74 625.6ZM1146.94 615V611H1143.68L1143.02 614.187L1146.94 615ZM1175.74 615L1179.65 615.829L1180.67 611H1175.74V615ZM1161.34 683L1165.2 684.031L1165.23 683.93L1165.25 683.829L1161.34 683ZM1178.34 692.8L1175.23 690.287L1175.2 690.324L1175.17 690.361L1178.34 692.8ZM1184.94 679.2V675.2H1181.92L1181.09 678.101L1184.94 679.2ZM1193.34 679.2L1197.12 680.496L1198.94 675.2H1193.34V679.2ZM1174.94 708.6L1177.24 711.871L1177.25 711.867L1177.25 711.863L1174.94 708.6ZM1139.54 711.6L1136.77 714.486L1136.83 714.542L1136.89 714.596L1139.54 711.6ZM1133.54 697.8L1137.51 697.358L1136.35 686.896L1130.27 695.49L1133.54 697.8ZM1120.54 711.2L1122.86 714.455L1122.87 714.449L1122.88 714.443L1120.54 711.2ZM1126.54 692.2L1129.31 695.088L1129.31 695.086L1126.54 692.2ZM1133.34 679.2L1137.25 680.058L1137.25 680.044L1137.25 680.031L1133.34 679.2ZM1142.94 634L1146.85 634.831L1146.94 634.42V634H1142.94ZM1140.94 629L1137.77 631.439L1137.82 631.501L1137.87 631.561L1140.94 629ZM1120.34 635.8L1123.62 638.084L1123.63 638.068L1123.64 638.051L1120.34 635.8ZM1110.34 658.2L1114.19 659.268L1114.2 659.26L1114.2 659.252L1110.34 658.2ZM1109.54 694L1106.71 696.828L1106.76 696.877L1106.81 696.924L1109.54 694ZM1103.74 712.2C1097.16 712.2 1091.88 709.996 1087.6 705.609L1081.87 711.191C1087.73 717.204 1095.12 720.2 1103.74 720.2V712.2ZM1087.6 705.609C1083.57 701.467 1081.14 694.559 1081.14 684H1073.14C1073.14 695.575 1075.78 704.933 1081.87 711.191L1087.6 705.609ZM1081.14 684C1081.14 674.661 1082.97 664.785 1086.7 654.348L1079.17 651.652C1075.18 662.815 1073.14 673.606 1073.14 684H1081.14ZM1086.69 654.374C1090.5 643.962 1096.05 635.29 1103.32 628.278L1097.76 622.522C1089.56 630.444 1083.37 640.172 1079.18 651.626L1086.69 654.374ZM1103.32 628.277C1110.45 621.387 1118.79 618 1128.54 618V610C1116.69 610 1106.36 614.213 1097.76 622.523L1103.32 628.277ZM1128.54 618C1133.69 618 1136.77 618.904 1138.44 620.077L1143.03 613.523C1139.37 610.963 1134.32 610 1128.54 610V618ZM1138.44 620.077C1140.12 621.249 1140.74 622.53 1140.74 624.2H1148.74C1148.74 619.736 1146.69 616.084 1143.03 613.523L1138.44 620.077ZM1140.74 624.2V625.6H1148.74V624.2H1140.74ZM1148.65 626.413L1150.85 615.813L1143.02 614.187L1140.82 624.787L1148.65 626.413ZM1146.94 619H1175.74V611H1146.94V619ZM1171.83 614.171L1157.43 682.171L1165.25 683.829L1179.65 615.829L1171.83 614.171ZM1157.47 681.969C1156.84 684.336 1156.54 686.818 1156.54 689.4H1164.54C1164.54 687.449 1164.77 685.664 1165.2 684.031L1157.47 681.969ZM1156.54 689.4C1156.54 692.837 1157.35 696.157 1159.69 698.61C1162.07 701.099 1165.34 702 1168.74 702V694C1166.67 694 1165.84 693.468 1165.48 693.09C1165.09 692.676 1164.54 691.696 1164.54 689.4H1156.54ZM1168.74 702C1173.94 702 1178.23 699.499 1181.51 695.239L1175.17 690.361C1173.11 693.034 1171.01 694 1168.74 694V702ZM1181.45 695.313C1184.67 691.322 1187.08 686.264 1188.78 680.299L1181.09 678.101C1179.6 683.336 1177.6 687.344 1175.23 690.287L1181.45 695.313ZM1184.94 683.2H1193.34V675.2H1184.94V683.2ZM1189.55 677.904C1184.72 692.005 1178.94 700.856 1172.62 705.337L1177.25 711.863C1185.6 705.944 1192.09 695.195 1197.12 680.496L1189.55 677.904ZM1172.64 705.329C1165.97 710.018 1159.49 712.2 1153.14 712.2V720.2C1161.45 720.2 1169.5 717.315 1177.24 711.871L1172.64 705.329ZM1153.14 712.2C1148.3 712.2 1144.78 710.894 1142.19 708.604L1136.89 714.596C1141.23 718.439 1146.78 720.2 1153.14 720.2V712.2ZM1142.31 708.714C1139.83 706.339 1138.11 702.717 1137.51 697.358L1129.56 698.242C1130.3 704.883 1132.58 710.461 1136.77 714.486L1142.31 708.714ZM1130.27 695.49C1126.63 700.644 1122.6 704.78 1118.2 707.957L1122.88 714.443C1128.08 710.687 1132.72 705.89 1136.8 700.11L1130.27 695.49ZM1118.21 707.945C1114.32 710.728 1109.56 712.2 1103.74 712.2V720.2C1110.98 720.2 1117.43 718.339 1122.86 714.455L1118.21 707.945ZM1116.74 700.8C1121.41 700.8 1125.61 698.627 1129.31 695.088L1123.77 689.312C1121.06 691.907 1118.74 692.8 1116.74 692.8V700.8ZM1129.31 695.086C1133.32 691.23 1135.91 686.132 1137.25 680.058L1129.43 678.342C1128.36 683.201 1126.42 686.77 1123.77 689.314L1129.31 695.086ZM1137.25 680.031L1146.85 634.831L1139.03 633.169L1129.43 678.369L1137.25 680.031ZM1146.94 634C1146.94 631.152 1145.82 628.607 1144.01 626.439L1137.87 631.561C1138.73 632.593 1138.94 633.382 1138.94 634H1146.94ZM1144.11 626.561C1141.81 623.576 1138.4 622.4 1134.74 622.4V630.4C1136.68 630.4 1137.4 630.957 1137.77 631.439L1144.11 626.561ZM1134.74 622.4C1127.58 622.4 1121.71 626.685 1117.03 633.549L1123.64 638.051C1127.5 632.382 1131.23 630.4 1134.74 630.4V622.4ZM1117.05 633.516C1112.48 640.096 1108.97 648.001 1106.48 657.148L1114.2 659.252C1116.5 650.799 1119.67 643.77 1123.62 638.084L1117.05 633.516ZM1106.48 657.132C1104.02 666.034 1102.74 674.072 1102.74 681.2H1110.74C1110.74 674.995 1111.86 667.699 1114.19 659.268L1106.48 657.132ZM1102.74 681.2C1102.74 684.687 1102.98 687.735 1103.53 690.255C1104.06 692.696 1104.99 695.106 1106.71 696.828L1112.37 691.172C1112.22 691.028 1111.75 690.37 1111.35 688.545C1110.96 686.798 1110.74 684.379 1110.74 681.2H1102.74ZM1106.81 696.924C1109.57 699.5 1112.95 700.8 1116.74 700.8V692.8C1114.93 692.8 1113.51 692.233 1112.27 691.076L1106.81 696.924ZM1189.21 710.2L1186.34 712.98L1186.36 713.004L1186.38 713.028L1189.21 710.2ZM1185.01 679.2L1181.1 678.365L1181.09 678.39L1181.09 678.416L1185.01 679.2ZM1197.01 623L1200.92 623.835L1201.96 619H1197.01V623ZM1190.41 623L1186.49 622.216L1185.53 627H1190.41V623ZM1192.01 615V611H1188.73L1188.09 614.216L1192.01 615ZM1198.61 615V619H1201.84L1202.52 615.85L1198.61 615ZM1204.61 587.4L1204.08 583.436L1201.3 583.811L1200.7 586.55L1204.61 587.4ZM1234.21 583.4L1238.12 584.241L1239.32 578.673L1233.68 579.436L1234.21 583.4ZM1227.41 615L1223.5 614.159L1222.46 619H1227.41V615ZM1239.41 615L1243.33 615.784L1244.29 611H1239.41V615ZM1237.81 623V627H1241.09L1241.73 623.784L1237.81 623ZM1225.81 623V619H1222.58L1221.9 622.165L1225.81 623ZM1213.01 683L1216.88 684.031L1216.9 683.933L1216.92 683.835L1213.01 683ZM1214.01 695.2L1211.18 698.028L1211.34 698.185L1211.51 698.323L1214.01 695.2ZM1231.21 692L1233.98 694.886L1234.01 694.857L1234.04 694.828L1231.21 692ZM1238.41 679.2V675.2H1235.38L1234.56 678.114L1238.41 679.2ZM1246.81 679.2L1250.6 680.496L1252.41 675.2H1246.81V679.2ZM1227.81 708.6L1230 711.946L1230.02 711.933L1230.04 711.919L1227.81 708.6ZM1204.81 712.2C1199.32 712.2 1195.19 710.52 1192.04 707.372L1186.38 713.028C1191.23 717.88 1197.5 720.2 1204.81 720.2V712.2ZM1192.09 707.42C1189.21 704.439 1187.41 699.617 1187.41 692.2H1179.41C1179.41 700.783 1181.48 707.961 1186.34 712.98L1192.09 707.42ZM1187.41 692.2C1187.41 689.242 1187.89 685.199 1188.93 679.984L1181.09 678.416C1180 683.867 1179.41 688.491 1179.41 692.2H1187.41ZM1188.92 680.035L1200.92 623.835L1193.1 622.165L1181.1 678.365L1188.92 680.035ZM1197.01 619H1190.41V627H1197.01V619ZM1194.33 623.784L1195.93 615.784L1188.09 614.216L1186.49 622.216L1194.33 623.784ZM1192.01 619H1198.61V611H1192.01V619ZM1202.52 615.85L1208.52 588.25L1200.7 586.55L1194.7 614.15L1202.52 615.85ZM1205.15 591.364L1234.75 587.364L1233.68 579.436L1204.08 583.436L1205.15 591.364ZM1230.3 582.558L1223.5 614.159L1231.32 615.841L1238.12 584.241L1230.3 582.558ZM1227.41 619H1239.41V611H1227.41V619ZM1235.49 614.216L1233.89 622.216L1241.73 623.784L1243.33 615.784L1235.49 614.216ZM1237.81 619H1225.81V627H1237.81V619ZM1221.9 622.165L1209.1 682.165L1216.92 683.835L1229.72 623.835L1221.9 622.165ZM1209.15 681.969C1208.52 684.336 1208.21 686.818 1208.21 689.4H1216.21C1216.21 687.449 1216.44 685.664 1216.88 684.031L1209.15 681.969ZM1208.21 689.4C1208.21 692.54 1208.9 695.746 1211.18 698.028L1216.84 692.372C1216.72 692.254 1216.21 691.594 1216.21 689.4H1208.21ZM1211.51 698.323C1213.91 700.24 1217.16 700.8 1220.41 700.8V692.8C1217.8 692.8 1216.78 692.293 1216.51 692.077L1211.51 698.323ZM1220.41 700.8C1225.51 700.8 1230.06 698.652 1233.98 694.886L1228.44 689.114C1225.7 691.748 1223.05 692.8 1220.41 692.8V700.8ZM1234.04 694.828C1237.92 690.944 1240.64 686.047 1242.26 680.286L1234.56 678.114C1233.25 682.753 1231.17 686.389 1228.38 689.172L1234.04 694.828ZM1238.41 683.2H1246.81V675.2H1238.41V683.2ZM1243.03 677.904C1238.21 691.959 1232.26 700.79 1225.58 705.281L1230.04 711.919C1238.83 706.01 1245.54 695.241 1250.6 680.496L1243.03 677.904ZM1225.62 705.254C1218.4 709.987 1211.48 712.2 1204.81 712.2V720.2C1213.34 720.2 1221.76 717.346 1230 711.946L1225.62 705.254ZM1243.73 708.6L1240.98 711.498L1240.99 711.516L1241.01 711.534L1243.73 708.6ZM1240.93 654L1244.74 655.237L1244.74 655.237L1240.93 654ZM1258.53 625.4L1261.34 628.252L1261.35 628.24L1261.36 628.228L1258.53 625.4ZM1305.13 653L1308.44 655.251L1308.44 655.251L1305.13 653ZM1288.13 668.2L1290 671.737L1290.03 671.723L1290.05 671.709L1288.13 668.2ZM1265.53 674.6L1265.27 670.609L1261.86 670.836L1261.55 674.238L1265.53 674.6ZM1301.13 686.6L1305.07 687.318L1307.14 675.943L1298.48 683.604L1301.13 686.6ZM1266.93 665L1263.02 664.159L1261.95 669.132L1267.04 668.999L1266.93 665ZM1281.13 660L1278.83 656.732L1278.8 656.748L1278.78 656.765L1281.13 660ZM1291.93 647.8L1288.43 645.865L1288.42 645.882L1288.41 645.898L1291.93 647.8ZM1277.13 636.6L1273.62 634.681L1273.62 634.69L1273.61 634.7L1277.13 636.6ZM1266.53 712.2C1257.49 712.2 1250.97 709.859 1246.45 705.666L1241.01 711.534C1247.42 717.475 1256.11 720.2 1266.53 720.2V712.2ZM1246.49 705.702C1242.12 701.542 1239.53 694.734 1239.53 684.4H1231.53C1231.53 695.932 1234.42 705.258 1240.98 711.498L1246.49 705.702ZM1239.53 684.4C1239.53 675.714 1241.23 666.005 1244.74 655.237L1237.13 652.763C1233.43 664.128 1231.53 674.686 1231.53 684.4H1239.53ZM1244.74 655.237C1248.14 644.768 1253.67 635.792 1261.34 628.252L1255.73 622.548C1247.13 631.008 1240.92 641.098 1237.13 652.763L1244.74 655.237ZM1261.36 628.228C1268.67 620.916 1277.95 617.2 1289.53 617.2V609.2C1276.04 609.2 1264.66 613.617 1255.7 622.572L1261.36 628.228ZM1289.53 617.2C1296.37 617.2 1300.76 618.704 1303.4 621.014C1305.94 623.232 1307.53 626.769 1307.53 632.4H1315.53C1315.53 625.231 1313.45 619.168 1308.66 614.986C1303.98 610.896 1297.36 609.2 1289.53 609.2V617.2ZM1307.53 632.4C1307.53 639.051 1305.65 645.135 1301.83 650.749L1308.44 655.251C1313.15 648.332 1315.53 640.683 1315.53 632.4H1307.53ZM1301.83 650.749C1297.94 656.46 1292.76 661.109 1286.21 664.691L1290.05 671.709C1297.64 667.558 1303.79 662.073 1308.44 655.251L1301.83 650.749ZM1286.26 664.663C1279.69 668.133 1272.71 670.113 1265.27 670.609L1265.8 678.591C1274.36 678.021 1282.44 675.733 1290 671.737L1286.26 664.663ZM1261.55 674.238C1261.28 677.152 1261.13 679.326 1261.13 680.6H1269.13C1269.13 679.741 1269.25 677.914 1269.52 674.962L1261.55 674.238ZM1261.13 680.6C1261.13 686.515 1262.22 691.681 1265.03 695.444C1268 699.426 1272.42 701.2 1277.53 701.2V693.2C1274.38 693.2 1272.6 692.207 1271.44 690.656C1270.11 688.886 1269.13 685.751 1269.13 680.6H1261.13ZM1277.53 701.2C1281.99 701.2 1286.57 700.008 1291.23 697.822L1287.83 690.578C1283.96 692.392 1280.55 693.2 1277.53 693.2V701.2ZM1291.23 697.822C1295.84 695.663 1300.02 692.92 1303.78 689.596L1298.48 683.604C1295.31 686.413 1291.76 688.737 1287.83 690.578L1291.23 697.822ZM1297.2 685.882C1295.51 695.137 1292.05 701.593 1287.18 705.76C1282.32 709.916 1275.59 712.2 1266.53 712.2V720.2C1276.94 720.2 1285.71 717.551 1292.38 711.84C1299.04 706.14 1303.16 697.796 1305.07 687.318L1297.2 685.882ZM1267.04 668.999C1272.97 668.842 1278.48 666.874 1283.48 663.235L1278.78 656.765C1274.98 659.526 1271.02 660.891 1266.83 661.001L1267.04 668.999ZM1283.44 663.268C1288.48 659.708 1292.49 655.172 1295.45 649.702L1288.41 645.898C1286.04 650.295 1282.85 653.892 1278.83 656.732L1283.44 663.268ZM1295.43 649.735C1298.54 644.112 1300.13 638.183 1300.13 632H1292.13C1292.13 636.75 1290.92 641.355 1288.43 645.865L1295.43 649.735ZM1300.13 632C1300.13 628.99 1299.7 626.063 1298.3 623.768C1296.7 621.151 1294.12 619.8 1291.13 619.8V627.8C1291.41 627.8 1291.46 627.853 1291.4 627.822C1291.34 627.788 1291.37 627.772 1291.47 627.932C1291.73 628.371 1292.13 629.543 1292.13 632H1300.13ZM1291.13 619.8C1287.49 619.8 1284.24 621.483 1281.43 624.048C1278.65 626.593 1276.07 630.212 1273.62 634.681L1280.64 638.519C1282.86 634.454 1284.95 631.673 1286.83 629.952C1288.69 628.25 1290.11 627.8 1291.13 627.8V619.8ZM1273.61 634.7C1268.88 643.472 1265.36 653.302 1263.02 664.159L1270.84 665.841C1273.04 655.631 1276.32 646.528 1280.65 638.5L1273.61 634.7Z" fill="#629EEB" mask="url(#path-2-outside-1_826_11)"/>
<defs>
<radialGradient id="paint0_radial_826_11" cx="0" cy="0" r="1" gradientUnits="userSpaceOnUse" gradientTransform="translate(610.5 510.5) scale(1517.5 1500.51)">
<stop stop-color="#65FFE8"/>
<stop offset="1" stop-color="#0033FF"/>
</radialGradient>
</defs>
</svg>
