<?xml version="1.0" standalone="no"?>
<!DOCTYPE svg PUBLIC "-//W3C//DTD SVG 20010904//EN"
 "http://www.w3.org/TR/2001/REC-SVG-20010904/DTD/svg10.dtd">
<svg version="1.0" xmlns="http://www.w3.org/2000/svg"
 width="2688.000000pt" height="395.000000pt" viewBox="0 0 2688.000000 395.000000"
 preserveAspectRatio="xMidYMid meet">
<metadata>
Created by potrace 1.16, written by Peter Selinger 2001-2019
</metadata>
<g transform="translate(0.000000,395.000000) scale(0.100000,-0.100000)"
fill="#000000" stroke="none">
<path d="M9240 1970 l0 -1970 45 0 45 0 0 1970 0 1970 -45 0 -45 0 0 -1970z"/>
<path d="M12720 3487 c-77 -18 -116 -41 -150 -89 -27 -36 -30 -49 -30 -113 0
-64 3 -76 31 -114 22 -31 49 -52 102 -77 39 -19 77 -34 83 -34 23 0 103 -39
123 -59 14 -14 21 -34 21 -59 0 -105 -157 -136 -275 -56 l-38 26 -44 -44 -44
-44 44 -31 c71 -51 158 -76 252 -71 173 9 269 94 268 235 -1 114 -66 181 -225
233 -93 30 -132 58 -136 97 -5 46 13 71 59 83 51 14 106 5 165 -26 l46 -25 34
38 c18 21 33 41 34 46 0 12 -91 67 -130 77 -65 17 -135 19 -190 7z"/>
<path d="M19962 3480 c-57 -12 -102 -41 -151 -96 -124 -141 -112 -459 21 -582
117 -109 315 -101 418 15 67 76 85 137 85 288 0 149 -17 209 -81 284 -66 77
-184 113 -292 91z m155 -89 c90 -42 131 -153 120 -328 -8 -116 -22 -160 -66
-204 -110 -110 -287 -54 -333 105 -19 65 -15 232 6 294 21 62 67 119 111 138
43 19 113 17 162 -5z"/>
<path d="M9930 3111 l0 -371 143 0 c139 0 213 11 267 40 56 29 100 74 127 128
27 54 28 63 28 202 0 139 -1 147 -29 203 -32 66 -78 105 -165 138 -46 18 -83
23 -213 27 l-158 4 0 -371z m303 235 c49 -21 78 -59 93 -123 24 -100 13 -231
-24 -295 -23 -39 -82 -68 -156 -75 l-66 -6 0 257 0 256 60 0 c33 0 75 -6 93
-14z"/>
<path d="M10620 3110 l0 -370 80 0 80 0 0 370 0 370 -80 0 -80 0 0 -370z"/>
<path d="M10940 3110 l0 -370 163 0 c288 0 378 51 379 211 0 86 -42 146 -115
164 -36 9 -34 15 12 44 52 32 71 68 71 134 0 69 -28 114 -90 144 -65 33 -135
43 -286 43 l-134 0 0 -370z m325 225 c41 -40 29 -121 -22 -144 -13 -6 -51 -11
-83 -11 l-60 0 0 90 0 90 70 0 c62 0 74 -3 95 -25z m27 -304 c36 -40 39 -98 6
-136 -23 -25 -97 -45 -170 -45 l-28 0 0 111 0 112 82 -5 c76 -5 83 -7 110 -37z"/>
<path d="M11600 3111 l0 -371 80 0 80 0 0 146 0 145 37 -3 c36 -3 38 -5 114
-143 l77 -140 92 -3 92 -3 -20 33 c-11 18 -54 89 -95 158 l-74 125 26 14 c79
41 115 102 114 191 0 99 -33 148 -128 192 -44 20 -69 23 -222 26 l-173 4 0
-371z m313 238 c31 -14 47 -48 47 -100 0 -78 -40 -109 -140 -109 l-60 0 0 110
0 110 65 0 c35 0 75 -5 88 -11z"/>
<path d="M12250 3110 l0 -370 80 0 80 0 0 370 0 370 -80 0 -80 0 0 -370z"/>
<path d="M13470 3112 l0 -372 118 0 c199 0 290 43 352 165 35 69 35 70 35 205
0 133 -1 137 -33 202 -56 114 -142 155 -349 165 l-123 6 0 -371z m293 263 c76
-36 117 -126 117 -262 0 -139 -29 -211 -105 -265 -34 -24 -54 -30 -128 -35
l-87 -6 0 298 0 298 83 -5 c50 -3 97 -11 120 -23z"/>
<path d="M14150 3110 l0 -370 45 0 45 0 0 370 0 370 -45 0 -45 0 0 -370z"/>
<path d="M14460 3111 l0 -371 50 0 50 0 0 134 0 133 98 5 c130 6 198 36 241
103 58 92 50 216 -19 285 -55 55 -111 70 -277 77 l-143 6 0 -372z m300 267
c55 -28 74 -64 74 -141 -1 -105 -56 -147 -191 -147 l-83 0 0 155 0 155 78 0
c61 0 88 -5 122 -22z"/>
<path d="M15139 3453 c-10 -26 -57 -170 -174 -538 -25 -77 -48 -148 -51 -158
-5 -16 0 -18 42 -15 l47 3 29 93 29 92 144 0 143 0 7 -32 c4 -18 16 -61 27
-95 l19 -63 50 0 c45 0 50 2 44 18 -7 18 -132 406 -194 602 l-37 115 -57 3
c-54 3 -58 2 -68 -25z m126 -262 c30 -101 55 -186 55 -188 0 -1 -53 -3 -119
-3 l-118 0 32 108 c66 219 88 287 91 277 2 -5 28 -93 59 -194z"/>
<path d="M15620 3111 l0 -371 45 0 45 0 0 155 0 155 63 0 62 0 89 -155 88
-155 54 0 c49 0 54 2 45 18 -5 9 -40 69 -79 133 -38 64 -77 130 -86 147 -17
32 -16 32 11 43 43 16 91 57 109 91 19 36 22 138 6 179 -16 41 -67 86 -119
104 -32 11 -96 18 -190 22 l-143 6 0 -372z m297 270 c46 -22 60 -41 68 -97 7
-54 -14 -104 -54 -131 -29 -20 -47 -23 -127 -23 l-94 0 0 135 0 135 83 0 c59
0 94 -6 124 -19z"/>
<path d="M16160 3435 l0 -45 105 0 105 0 0 -325 0 -325 45 0 45 0 0 325 0 325
104 0 104 0 6 31 c12 63 29 59 -254 59 l-260 0 0 -45z"/>
<path d="M16800 3110 l0 -370 45 0 45 0 0 370 0 370 -45 0 -45 0 0 -370z"/>
<path d="M17116 3273 c-33 -403 -36 -438 -42 -485 l-6 -48 46 0 c30 0 46 4 46
13 0 6 9 120 20 252 11 132 20 269 21 305 l1 65 13 -40 c41 -128 111 -352 133
-428 l25 -88 45 3 45 3 27 90 c15 50 51 172 81 272 l54 182 6 -87 c4 -48 15
-189 25 -314 l18 -228 43 0 43 0 0 45 c0 41 -41 518 -55 643 l-7 53 -61 -3
-62 -3 -76 -270 c-70 -245 -78 -267 -88 -242 -6 16 -11 32 -11 38 0 5 -13 50
-29 101 -16 51 -43 143 -61 203 -57 198 -42 175 -114 175 l-63 0 -17 -207z"/>
<path d="M17960 3110 l0 -370 200 0 200 0 0 35 0 35 -155 0 -155 0 0 130 0
130 125 0 125 0 0 40 0 40 -125 0 -125 0 0 125 0 124 148 3 147 3 3 38 3 37
-195 0 -196 0 0 -370z"/>
<path d="M18530 3110 l0 -370 41 0 40 0 -3 310 -3 309 20 -37 c10 -20 78 -158
151 -307 l132 -270 66 -3 66 -3 0 371 0 370 -46 0 -46 0 4 -314 3 -315 -154
315 -154 314 -59 0 -58 0 0 -370z"/>
<path d="M19160 3435 l0 -45 105 0 105 0 0 -325 0 -325 50 0 50 0 0 325 0 324
103 3 102 3 3 43 3 42 -260 0 -261 0 0 -45z"/>
<path d="M8172 3187 l-42 -43 116 -93 115 -94 29 28 29 28 -96 106 c-52 58
-98 107 -102 109 -4 1 -26 -17 -49 -41z"/>
<path d="M4225 3211 c-62 -27 -79 -112 -31 -159 21 -21 36 -27 71 -27 57 0 85
26 92 87 4 37 1 49 -18 71 -26 28 -81 42 -114 28z"/>
<path d="M7183 3213 c-60 -12 -84 -108 -39 -160 33 -38 102 -40 140 -4 36 33
37 107 3 139 -24 23 -67 33 -104 25z"/>
<path d="M7 3003 c-21 -514 4 -948 64 -1125 113 -337 336 -590 661 -753 60
-30 116 -55 123 -55 29 0 254 122 334 180 208 153 368 376 452 631 49 149 60
282 66 812 l6 477 -850 0 -850 0 -6 -167z m763 42 l0 -85 -365 0 -365 0 0 85
0 85 365 0 365 0 0 -85z m910 0 l0 -85 -360 0 -360 0 0 85 0 85 360 0 360 0 0
-85z m-910 -350 l0 -75 -365 0 -365 0 0 75 0 75 365 0 365 0 0 -75z m910 0 l0
-75 -360 0 -360 0 0 75 0 75 360 0 360 0 0 -75z m-692 -161 c219 -45 396 -198
469 -407 118 -337 -58 -696 -400 -815 -105 -37 -289 -37 -394 0 -124 43 -243
130 -317 230 -41 57 -94 176 -106 237 -14 77 -12 216 5 289 31 129 124 271
229 349 154 115 330 155 514 117z"/>
<path d="M838 2288 c-38 -20 -46 -36 -28 -54 6 -6 6 -30 1 -64 -7 -42 -17 -64
-44 -92 -19 -21 -43 -61 -52 -90 -21 -62 -75 -157 -91 -158 -6 0 -19 -9 -29
-20 -25 -27 -3 -54 36 -46 23 4 28 1 31 -17 2 -12 10 -22 18 -22 18 0 38 40
49 97 13 67 12 32 -4 -118 -8 -77 -23 -173 -34 -214 -10 -41 -22 -92 -25 -112
l-7 -38 143 0 c79 0 173 -3 210 -6 l67 -7 -24 94 c-14 52 -25 117 -25 145 0
100 -12 175 -26 170 -8 -3 -14 1 -14 10 0 8 4 12 10 9 15 -10 70 85 70 121 0
18 -9 53 -19 77 -21 49 -83 144 -106 161 -18 15 -23 100 -6 120 16 20 7 46
-15 46 -10 0 -25 6 -33 14 -14 12 -21 11 -53 -6z m62 -122 c0 -26 -5 -36 -20
-41 -29 -9 -40 2 -40 41 0 31 2 34 30 34 28 0 30 -3 30 -34z m-10 -56 c0 -5
-10 -10 -22 -9 -22 0 -22 1 -3 9 11 5 21 9 23 9 1 1 2 -3 2 -9z m67 -26 c5
-14 -84 -34 -149 -34 -44 0 -49 2 -38 15 8 10 31 15 64 16 28 0 60 4 71 9 25
11 47 8 52 -6z m31 -154 c9 0 11 -7 6 -22 -5 -13 -7 -42 -6 -64 3 -40 2 -42
-33 -48 -19 -4 -40 -4 -45 -1 -15 9 -12 45 6 99 14 41 20 47 38 42 11 -3 27
-6 34 -6z m-241 -42 c-3 -7 -5 -2 -5 12 0 14 2 19 5 13 2 -7 2 -19 0 -25z
m-103 -109 c-8 -13 -42 -11 -50 3 -4 6 1 17 12 25 16 12 20 11 31 -3 7 -9 10
-21 7 -25z"/>
<path d="M2340 3126 l0 -44 49 -7 50 -7 4 -316 c2 -213 7 -329 16 -354 20 -62
72 -120 136 -153 56 -29 64 -30 189 -30 112 0 138 3 177 22 66 30 123 85 150
146 23 51 24 60 27 368 l3 317 55 7 54 6 0 45 0 44 -175 0 -175 0 0 -44 0 -44
50 -7 50 -7 0 -297 c0 -288 -1 -298 -22 -341 -36 -69 -65 -84 -164 -89 -98 -4
-131 7 -173 54 -44 50 -51 106 -51 404 l0 269 55 7 55 6 0 45 0 44 -180 0
-180 0 0 -44z"/>
<path d="M7605 3053 c-3 -16 -17 -51 -30 -80 -20 -44 -32 -55 -75 -75 -49 -22
-50 -24 -50 -65 l0 -43 50 0 50 0 0 -199 c0 -230 9 -293 47 -333 47 -49 146
-62 257 -33 85 22 85 22 69 77 -14 46 -14 46 -46 37 -17 -5 -55 -9 -83 -9 -87
0 -88 5 -92 251 l-3 209 100 0 101 0 0 55 0 55 -100 0 -100 0 0 90 0 90 -45 0
c-41 0 -45 -2 -50 -27z"/>
<path d="M3657 2890 c-32 -10 -76 -30 -97 -43 l-38 -26 -6 40 -6 39 -95 0
c-90 0 -95 -1 -99 -22 -13 -61 -13 -63 29 -78 l40 -16 3 -232 2 -232 -40 -6
c-40 -6 -40 -7 -40 -50 l0 -44 160 0 160 0 0 44 0 44 -45 7 -45 6 2 201 3 200
48 25 c52 27 120 39 162 29 46 -12 55 -53 55 -265 0 -207 2 -201 -61 -201 -28
0 -29 -2 -29 -45 l0 -45 165 0 165 0 0 44 0 44 -44 6 -45 7 -3 227 c-3 221 -4
228 -28 272 -47 85 -147 111 -273 70z"/>
<path d="M5427 2892 c-127 -45 -197 -163 -197 -331 0 -126 42 -240 107 -287
70 -52 93 -58 208 -59 106 0 136 6 222 41 l31 14 -21 50 c-18 43 -25 50 -42
45 -89 -29 -127 -36 -182 -33 -94 6 -146 52 -159 141 l-6 47 212 0 213 0 -5
93 c-6 107 -33 181 -87 233 -62 60 -194 81 -294 46z m178 -118 c26 -17 43 -50
51 -104 l7 -40 -138 0 -137 0 7 37 c11 60 31 89 77 112 47 23 92 22 133 -5z"/>
<path d="M6230 2894 c-19 -8 -54 -33 -76 -55 l-41 -40 -7 50 -7 51 -95 0
c-101 0 -98 1 -108 -56 -4 -28 -2 -31 37 -46 l42 -15 3 -231 2 -230 -40 -7
c-40 -7 -40 -7 -40 -51 l0 -44 185 0 185 0 0 44 0 44 -70 7 -70 7 0 197 c0
218 -2 210 68 245 52 27 75 18 85 -31 8 -43 8 -43 52 -43 24 0 50 -3 59 -6 14
-5 16 8 16 104 l0 110 -31 6 c-52 10 -112 6 -149 -10z"/>
<path d="M6645 2897 c-110 -37 -155 -89 -162 -189 -8 -113 45 -168 195 -203
145 -34 172 -51 172 -114 0 -32 -20 -58 -57 -72 -33 -12 -121 -10 -163 4 -31
11 -36 17 -43 60 l-9 47 -54 0 -54 0 0 -90 0 -89 53 -16 c72 -22 219 -30 289
-16 131 28 202 135 168 256 -23 83 -79 117 -266 165 -62 15 -94 45 -94 85 0
64 60 94 165 80 57 -7 57 -7 70 -72 6 -32 8 -33 61 -33 l55 0 -3 86 -3 87 -45
14 c-66 20 -226 26 -275 10z"/>
<path d="M8170 2895 c-71 -20 -119 -66 -130 -126 -5 -24 -8 -45 -7 -46 1 0 32
-4 68 -8 l67 -7 7 31 c10 45 39 61 111 61 47 0 67 -5 88 -21 24 -19 26 -26 26
-94 l0 -73 -82 -7 c-122 -9 -195 -25 -231 -49 -133 -90 -100 -319 49 -342 94
-14 177 7 251 63 l32 25 7 -41 7 -41 103 0 104 0 0 44 0 44 -44 6 -45 7 -3
232 c-4 271 -7 284 -93 327 -63 31 -200 38 -285 15z m230 -437 c0 -60 -2 -64
-33 -85 -46 -31 -82 -43 -131 -43 -59 0 -78 23 -74 86 3 42 7 50 36 67 18 11
65 22 105 27 39 4 78 8 85 9 8 1 12 -17 12 -61z"/>
<path d="M4126 2878 c-13 -51 -7 -64 34 -81 l40 -15 0 -230 0 -230 -22 -6
c-13 -3 -33 -6 -45 -6 -20 0 -23 -5 -23 -45 l0 -45 170 0 170 0 0 45 c0 41 -2
45 -24 45 -14 0 -36 4 -50 10 l-26 10 0 285 0 285 -109 0 c-104 0 -109 -1
-115 -22z"/>
<path d="M4467 2883 c-19 -71 -19 -72 19 -79 40 -7 39 -7 99 -161 19 -51 50
-132 69 -180 19 -49 47 -123 62 -165 l29 -78 86 0 86 0 32 83 c17 45 66 174
109 287 l77 205 38 9 c36 9 37 11 37 53 l0 43 -135 0 -135 0 -5 -27 c-4 -16
-8 -35 -9 -45 -3 -12 7 -18 39 -23 l44 -6 -29 -77 c-96 -265 -124 -338 -129
-344 -5 -6 -85 201 -158 409 -3 6 12 14 36 18 41 7 41 7 41 51 l0 44 -149 0
c-134 0 -150 -2 -154 -17z"/>
<path d="M7080 2878 c0 -13 -3 -33 -6 -44 -5 -18 0 -24 33 -34 21 -7 41 -18
45 -24 4 -6 8 -109 8 -229 l0 -217 -26 -10 c-14 -6 -36 -10 -50 -10 -22 0 -24
-4 -24 -45 l0 -45 170 0 170 0 0 44 0 44 -45 6 -45 7 0 290 0 289 -115 0
c-113 0 -115 0 -115 -22z"/>
<path d="M12956 2350 c-102 -40 -166 -136 -187 -283 -38 -263 90 -457 301
-457 200 0 325 173 307 424 -15 211 -131 337 -310 336 -36 -1 -82 -9 -111 -20z
m197 -74 c79 -33 127 -142 127 -288 -1 -143 -43 -240 -121 -281 -53 -28 -155
-20 -203 16 -61 47 -96 144 -96 267 0 145 50 257 130 289 37 14 126 13 163 -3z"/>
<path d="M16610 2352 c-53 -20 -128 -91 -153 -145 -51 -107 -57 -259 -17 -390
29 -93 101 -168 185 -192 77 -23 168 -16 232 17 64 34 73 51 45 81 l-23 24
-55 -29 c-48 -26 -63 -30 -114 -26 -139 10 -210 134 -197 341 7 108 37 181 92
223 54 41 150 46 217 11 l47 -24 22 23 c29 30 20 47 -38 75 -63 31 -178 36
-243 11z"/>
<path d="M19327 2356 c-137 -49 -207 -174 -207 -371 0 -173 50 -279 162 -341
48 -26 62 -29 143 -29 70 0 99 5 130 20 64 32 118 93 145 165 22 57 25 81 25
195 0 113 -4 138 -24 189 -30 76 -98 145 -166 169 -59 20 -155 22 -208 3z
m188 -82 c45 -21 86 -77 102 -138 15 -60 17 -222 2 -286 -23 -104 -93 -160
-197 -160 -80 0 -133 34 -170 110 -25 52 -27 64 -27 190 0 118 3 141 22 182
23 49 63 94 98 109 35 14 135 10 170 -7z"/>
<path d="M21103 2349 c-138 -53 -211 -198 -201 -398 9 -155 56 -250 156 -309
43 -25 55 -27 152 -27 88 1 114 5 165 25 l60 25 3 183 2 182 -115 0 -116 0 3
-37 3 -38 68 -3 67 -3 0 -115 0 -114 -27 -12 c-16 -6 -61 -13 -100 -16 -65 -4
-77 -1 -117 22 -69 40 -100 111 -104 244 -5 119 7 178 49 244 43 67 99 92 189
86 48 -4 77 -12 98 -27 38 -27 43 -26 73 5 l24 25 -25 20 c-76 58 -211 75
-307 38z"/>
<path d="M22344 2349 c-69 -26 -129 -86 -166 -165 -26 -55 -32 -82 -36 -160
-10 -193 45 -324 163 -387 34 -19 56 -22 145 -21 88 0 115 4 165 25 l60 25 3
182 2 182 -121 0 c-106 0 -120 -2 -115 -16 3 -9 6 -27 6 -40 0 -23 3 -24 70
-24 l70 0 0 -114 0 -114 -40 -16 c-22 -9 -68 -16 -103 -16 -88 0 -133 27 -171
104 -26 51 -30 72 -34 165 -5 127 10 194 60 259 43 56 97 76 182 70 43 -4 74
-13 94 -27 38 -27 40 -26 69 6 l25 26 -23 19 c-74 57 -211 74 -305 37z"/>
<path d="M9960 1990 l0 -370 115 0 c277 0 396 111 397 370 2 268 -112 370
-414 370 l-98 0 0 -370z m317 258 c75 -50 109 -170 92 -326 -10 -90 -39 -146
-97 -187 -39 -27 -53 -30 -133 -33 l-89 -4 0 292 0 292 93 -4 c81 -3 99 -6
134 -30z"/>
<path d="M10640 1990 l0 -370 50 0 50 0 0 370 0 370 -50 0 -50 0 0 -370z"/>
<path d="M11240 1990 l0 -370 50 0 50 0 0 370 0 370 -50 0 -50 0 0 -370z"/>
<path d="M11560 1990 l0 -370 40 0 40 0 0 308 1 307 151 -307 151 -308 64 0
63 0 0 370 0 370 -46 0 -46 0 4 -311 3 -311 -153 311 -153 311 -60 0 -59 0 0
-370z"/>
<path d="M12290 1990 l0 -370 45 0 45 0 0 165 0 165 120 0 120 0 0 40 0 40
-120 0 -120 0 0 125 0 125 139 0 c135 0 139 1 145 23 16 59 23 57 -184 57
l-190 0 0 -370z"/>
<path d="M13550 1991 l0 -371 45 0 45 0 0 160 0 160 63 0 c62 0 63 0 82 -37
11 -21 45 -81 75 -133 30 -52 61 -107 69 -122 13 -25 20 -28 68 -28 29 0 53 3
53 6 0 3 -43 78 -96 166 -52 88 -94 161 -92 162 2 2 24 13 50 25 58 28 86 64
100 133 15 74 -2 132 -53 180 -53 50 -90 60 -261 65 l-148 5 0 -371z m331 253
c59 -60 46 -174 -25 -211 -20 -11 -64 -18 -123 -21 l-93 -4 0 137 0 137 105
-4 c102 -3 105 -4 136 -34z"/>
<path d="M14187 2028 c-15 -183 -30 -350 -32 -370 l-5 -38 44 0 44 0 6 53 c8
77 36 442 39 519 l2 66 85 -274 85 -274 45 0 45 0 50 168 c27 92 62 213 79
268 l31 102 24 -292 c12 -160 25 -301 28 -313 4 -20 12 -23 50 -23 l44 0 -5
33 c-3 17 -10 88 -16 157 -29 364 -41 507 -46 528 -4 20 -10 22 -67 22 l-62 0
-23 -82 c-12 -46 -46 -168 -76 -273 l-54 -190 -22 75 c-80 271 -104 352 -121
408 l-21 62 -62 0 -61 0 -28 -332z"/>
<path d="M15172 2333 c-6 -16 -36 -104 -66 -198 -31 -93 -80 -246 -111 -340
-30 -93 -55 -171 -55 -172 0 -2 22 -3 48 -3 55 0 45 -15 87 133 l16 57 144 0
144 0 19 -62 c11 -35 23 -78 27 -95 6 -32 8 -33 56 -33 27 0 49 4 49 9 0 6
-13 49 -29 98 -16 48 -68 211 -117 361 l-88 272 -57 0 c-52 0 -57 -2 -67 -27z
m138 -300 c22 -72 40 -134 40 -137 0 -3 -52 -6 -115 -6 -63 0 -115 2 -115 5 0
3 23 81 51 173 29 92 54 178 57 191 5 26 8 19 82 -226z"/>
<path d="M15500 2320 l0 -40 110 0 110 0 0 -330 0 -330 45 0 45 0 0 330 0 330
104 0 104 0 4 40 4 40 -263 0 -263 0 0 -40z"/>
<path d="M16150 1990 l0 -370 45 0 45 0 0 370 0 370 -45 0 -45 0 0 -370z"/>
<path d="M17130 2163 c-35 -109 -87 -272 -117 -361 -29 -90 -53 -168 -53 -173
0 -5 20 -9 45 -9 l44 0 30 93 29 92 146 3 c104 2 146 -1 146 -9 0 -6 12 -49
26 -95 l26 -84 50 0 c36 0 49 4 45 13 -2 6 -37 113 -77 237 -39 124 -91 284
-114 355 l-43 130 -59 3 -60 3 -64 -198z m180 -78 c23 -77 46 -152 50 -167 l9
-28 -118 0 -118 0 53 177 c29 97 56 184 60 193 7 17 2 30 64 -175z"/>
<path d="M18200 1989 l0 -371 164 4 c158 3 165 5 221 33 80 41 108 92 103 186
-3 54 -9 73 -31 103 -16 20 -32 36 -36 36 -5 0 -26 7 -47 16 l-39 16 37 19
c104 53 118 202 26 272 -49 38 -143 57 -280 57 l-118 0 0 -371z m305 276 c38
-19 55 -51 55 -106 0 -76 -71 -119 -197 -119 l-63 0 0 120 0 120 86 0 c57 0
97 -5 119 -15z m9 -309 c51 -21 76 -60 76 -118 0 -104 -49 -138 -200 -138
l-90 0 0 135 0 135 90 0 c54 0 104 -6 124 -14z"/>
<path d="M18850 1990 l0 -370 50 0 50 0 0 370 0 370 -50 0 -50 0 0 -370z"/>
<path d="M19910 1990 l0 -370 45 0 45 0 0 370 0 370 -45 0 -45 0 0 -370z"/>
<path d="M20220 1990 l0 -370 47 0 46 0 -6 298 c-3 164 -9 307 -12 318 -6 20
98 -186 231 -458 l76 -158 64 0 64 0 0 370 0 370 -46 0 -46 0 4 -311 3 -311
-152 311 -153 311 -60 0 -60 0 0 -370z"/>
<path d="M21620 1990 l0 -370 200 0 200 0 0 40 0 40 -155 0 -155 0 0 130 0
130 125 0 125 0 0 40 0 40 -125 0 -125 0 0 120 0 120 144 0 c155 0 156 0 156
56 l0 24 -195 0 -195 0 0 -370z"/>
<path d="M22860 1990 l0 -370 47 0 46 0 -6 298 c-3 163 -8 306 -11 317 -4 11
64 -123 151 -297 l157 -318 63 0 63 0 0 370 0 370 -46 0 -46 0 4 -311 3 -311
-152 311 -152 311 -61 0 -60 0 0 -370z"/>
<path d="M23590 1990 l0 -370 200 0 200 0 0 40 0 40 -155 0 -155 0 0 130 0
130 125 0 125 0 0 40 0 40 -125 0 -125 0 0 120 0 120 144 0 c141 0 144 0 150
23 16 59 24 57 -189 57 l-195 0 0 -370z"/>
<path d="M24150 1991 l0 -371 50 0 50 0 0 160 0 160 59 0 59 0 87 -152 c48
-84 90 -157 94 -161 5 -5 31 -7 59 -5 l51 3 -98 164 -99 165 47 22 c77 36 111
91 111 181 0 84 -35 135 -120 175 -38 18 -69 22 -197 26 l-153 4 0 -371z m310
274 c82 -42 80 -188 -3 -232 -20 -10 -64 -18 -119 -21 l-88 -4 0 136 0 136 90
0 c62 0 100 -5 120 -15z"/>
<path d="M24800 1990 l0 -370 45 0 45 0 0 370 0 370 -45 0 -45 0 0 -370z"/>
<path d="M25245 2348 c-3 -7 -46 -139 -95 -293 -50 -154 -102 -313 -115 -353
-14 -40 -25 -75 -25 -78 0 -3 21 -4 47 -2 l47 3 29 93 28 92 143 0 143 0 29
-95 29 -95 48 0 c26 0 47 3 47 8 0 4 -29 95 -63 202 -35 107 -88 270 -117 363
l-53 167 -59 0 c-38 0 -60 -4 -63 -12z m120 -266 c30 -100 55 -184 55 -187 0
-3 -52 -5 -115 -5 -66 0 -115 4 -115 10 0 5 18 64 39 132 21 68 47 152 57 187
10 36 19 61 21 55 1 -5 27 -91 58 -192z"/>
<path d="M3215 2015 c-34 -33 -34 -93 -1 -132 21 -24 31 -28 77 -27 44 0 56 5
76 28 32 38 32 98 -2 131 -19 20 -34 25 -75 25 -41 0 -56 -5 -75 -25z"/>
<path d="M2738 2005 c-1 -14 -2 -33 -2 -42 -1 -12 12 -21 39 -29 l40 -11 3
-118 c2 -109 1 -117 -15 -110 -143 62 -249 59 -343 -9 -83 -60 -128 -196 -117
-350 10 -141 54 -223 147 -272 26 -14 56 -19 115 -18 82 0 124 14 197 65 33
24 38 24 38 0 0 -48 6 -51 116 -51 l104 0 0 40 c0 39 -1 40 -40 46 l-40 7 0
438 0 439 -120 0 -120 0 -2 -25z m23 -412 l54 -28 3 -157 2 -156 -37 -31 c-99
-82 -224 -68 -261 29 -18 48 -23 145 -12 214 13 71 50 128 94 146 42 17 102
10 157 -17z"/>
<path d="M4250 2003 c-53 -9 -153 -45 -191 -69 -94 -59 -165 -165 -190 -282
-17 -83 -7 -262 20 -336 44 -123 134 -207 266 -249 123 -39 392 -26 517 24
l27 11 3 147 3 146 38 3 37 3 0 55 0 54 -209 0 -208 0 -10 -60 -10 -60 74 0
73 0 0 -94 0 -94 -68 -7 c-130 -13 -227 20 -282 97 -50 68 -63 125 -58 256 3
107 6 122 33 171 57 103 144 148 271 138 101 -8 110 -14 118 -86 4 -33 10 -62
14 -65 4 -2 40 -8 80 -11 l72 -8 0 125 0 126 -49 21 c-98 42 -265 62 -371 44z"/>
<path d="M17652 1740 c-12 -5 -27 -21 -34 -35 -10 -22 -9 -32 6 -59 17 -33 17
-36 -3 -110 -12 -42 -21 -78 -21 -81 0 -3 15 -5 33 -5 31 0 34 3 71 88 57 131
60 178 11 200 -30 14 -32 14 -63 2z"/>
<path d="M25703 1740 c-29 -12 -39 -52 -24 -98 10 -31 8 -51 -7 -115 l-20 -78
35 3 c32 3 36 8 70 83 40 88 54 174 31 192 -20 17 -60 23 -85 13z"/>
<path d="M5039 1726 c-142 -50 -211 -159 -211 -331 0 -202 86 -314 266 -346
53 -10 86 -10 145 -1 78 11 186 43 202 59 10 10 -35 123 -48 123 -5 0 -30 -7
-58 -16 -74 -23 -194 -23 -229 -1 -26 17 -65 86 -66 114 0 10 51 13 208 15
l207 3 -1 85 c-1 147 -46 234 -146 284 -45 22 -65 26 -142 26 -50 -1 -107 -7
-127 -14z m170 -136 c18 -9 34 -42 45 -92 l6 -28 -111 0 -111 0 6 25 c12 49
25 73 48 89 25 18 89 21 117 6z"/>
<path d="M5899 1721 c-26 -10 -57 -26 -70 -35 -35 -24 -49 -20 -49 14 l0 30
-119 0 c-132 0 -123 5 -135 -70 -6 -35 -6 -36 39 -48 l45 -12 0 -214 0 -213
-40 -7 -40 -6 0 -50 0 -50 185 0 185 0 0 50 0 50 -40 6 -40 7 0 187 0 188 40
16 c70 28 112 30 140 8 l25 -20 3 -246 3 -246 145 0 144 0 0 49 0 50 -42 8
-43 9 -5 224 c-6 249 -10 267 -72 312 -45 32 -190 37 -259 9z"/>
<path d="M6592 1726 c-120 -39 -190 -126 -214 -265 -23 -132 14 -264 95 -338
62 -58 129 -78 252 -77 164 1 262 53 320 170 24 50 29 75 33 160 8 171 -39
271 -153 329 -54 28 -68 30 -174 32 -78 2 -130 -2 -159 -11z m222 -147 c55
-43 74 -224 33 -321 -40 -97 -178 -105 -233 -14 -15 25 -19 51 -19 141 0 126
13 168 59 196 43 26 125 26 160 -2z"/>
<path d="M8113 1726 c-80 -26 -133 -85 -133 -148 0 -36 1 -38 34 -38 18 0 61
-3 95 -6 61 -7 61 -7 61 19 0 47 56 76 120 62 44 -10 60 -39 60 -112 l0 -63
-57 0 c-101 -1 -200 -18 -253 -45 -65 -33 -90 -80 -90 -167 0 -79 28 -132 85
-162 81 -42 255 -17 311 45 22 24 34 24 34 0 0 -49 5 -51 136 -51 l124 0 0 49
0 50 -42 8 -43 9 -5 214 c-6 251 -13 277 -90 320 -41 23 -57 25 -175 27 -88 2
-144 -2 -172 -11z m237 -450 c0 -52 -1 -54 -37 -71 -46 -22 -114 -25 -137 -6
-12 10 -16 26 -14 60 3 43 6 47 38 58 19 7 61 12 93 12 l57 1 0 -54z"/>
<path d="M3146 1699 c-10 -52 -8 -57 37 -71 l42 -15 3 -230 2 -231 -50 -7 -50
-7 0 -39 0 -39 175 0 175 0 0 39 c0 38 0 39 -47 48 l-48 8 -3 288 -2 287 -114
0 -113 0 -7 -31z"/>
<path d="M7117 1723 c-3 -5 -8 -29 -12 -55 -7 -45 -6 -48 15 -48 12 0 29 -4
39 -10 11 -5 59 -112 126 -280 l109 -271 119 3 120 3 106 265 c59 146 110 271
114 278 5 6 24 12 43 12 l34 0 0 55 0 55 -154 0 c-85 0 -157 -3 -159 -7 -3 -5
-8 -29 -12 -55 l-7 -48 41 0 c22 0 41 -4 41 -9 0 -9 -130 -351 -137 -360 -6
-8 -13 6 -43 87 -16 45 -44 119 -61 165 -47 126 -47 117 0 117 l41 0 0 55 0
55 -179 0 c-99 0 -182 -3 -184 -7z"/>
<path d="M10753 1246 c-63 -20 -110 -53 -148 -103 -55 -73 -70 -130 -70 -273
0 -108 4 -133 24 -184 60 -150 207 -223 362 -180 156 43 246 223 219 436 -18
145 -77 241 -176 287 -58 28 -155 35 -211 17z m188 -95 c22 -13 47 -42 65 -74
28 -51 29 -55 29 -202 0 -147 -1 -151 -29 -202 -64 -115 -217 -137 -306 -44
-50 52 -70 122 -70 240 0 160 36 247 122 290 53 28 135 24 189 -8z"/>
<path d="M12125 1251 c-48 -12 -107 -47 -142 -83 -75 -78 -114 -231 -95 -367
28 -195 139 -306 307 -305 179 0 290 124 303 337 10 169 -33 293 -126 364 -70
53 -165 74 -247 54z m143 -87 c99 -41 137 -136 130 -317 -4 -83 -11 -124 -25
-158 -68 -153 -276 -158 -353 -8 -44 85 -44 303 0 388 48 94 154 135 248 95z"/>
<path d="M13653 1251 c-77 -20 -155 -86 -195 -166 -37 -72 -49 -231 -27 -337
34 -159 144 -253 294 -252 74 0 158 29 190 64 15 16 14 20 -7 45 l-23 26 -49
-27 c-109 -61 -229 -26 -283 83 -27 55 -28 65 -28 193 0 124 2 139 25 185 52
104 158 140 267 91 l58 -27 24 27 c22 27 23 28 5 42 -61 47 -179 71 -251 53z"/>
<path d="M16933 1246 c-91 -29 -157 -88 -200 -181 -26 -57 -28 -68 -28 -195 0
-118 3 -142 24 -194 49 -123 137 -181 276 -181 63 0 97 6 158 29 l77 28 0 179
0 179 -121 0 c-106 0 -120 -2 -115 -16 3 -9 6 -24 6 -35 0 -17 8 -19 70 -19
l70 0 0 -119 0 -118 -56 -18 c-114 -36 -210 -3 -260 88 -26 48 -29 62 -32 174
-5 142 9 197 63 261 66 77 174 92 270 39 l43 -25 27 28 27 28 -43 28 c-80 51
-174 65 -256 40z"/>
<path d="M18155 1251 c-209 -54 -308 -303 -223 -560 51 -155 196 -228 371
-187 37 9 85 25 107 36 l40 20 0 175 0 175 -120 0 c-126 0 -126 0 -114 -47 6
-21 12 -23 70 -23 l64 0 0 -120 0 -119 -57 -17 c-64 -19 -134 -14 -183 11
-107 55 -145 309 -70 461 17 35 43 72 58 82 71 50 156 53 241 8 l50 -26 20 27
c12 14 21 30 21 35 0 5 -29 23 -65 39 -68 33 -155 45 -210 30z"/>
<path d="M23541 1244 c-65 -24 -89 -42 -118 -91 -35 -59 -30 -142 10 -195 29
-38 105 -79 192 -105 76 -23 122 -52 141 -91 18 -39 14 -90 -11 -129 -21 -31
-89 -62 -138 -63 -47 0 -144 33 -172 60 l-22 20 -27 -31 -28 -31 28 -24 c87
-71 251 -91 356 -42 94 44 141 141 117 241 -19 79 -63 115 -205 167 -125 46
-163 74 -165 119 -2 48 3 66 23 88 48 51 141 55 230 9 l52 -27 25 26 26 26
-25 19 c-79 62 -205 85 -289 54z"/>
<path d="M24418 1251 c-114 -37 -170 -119 -153 -222 13 -76 82 -130 225 -178
120 -39 150 -69 150 -150 0 -69 -77 -130 -162 -131 -48 0 -125 26 -165 56
l-32 24 -22 -32 -23 -31 32 -27 c107 -89 326 -85 415 8 92 96 65 262 -52 321
-20 10 -76 33 -126 50 -112 40 -145 69 -145 127 0 107 134 148 258 79 l46 -26
25 25 c30 31 22 44 -54 81 -57 28 -169 41 -217 26z"/>
<path d="M9960 876 l0 -366 45 0 45 0 0 155 0 155 63 0 63 0 69 -122 c38 -68
77 -136 86 -153 15 -27 22 -30 74 -33 l58 -3 -23 38 c-13 21 -52 88 -87 148
-36 61 -69 115 -75 122 -11 14 -2 33 16 33 23 0 95 59 112 92 11 20 18 56 18
93 0 82 -29 134 -98 172 -49 27 -57 28 -208 31 l-158 4 0 -366z m307 271 c43
-23 54 -47 54 -112 0 -104 -40 -135 -178 -135 l-93 0 0 136 0 136 93 -4 c60
-3 103 -10 124 -21z"/>
<path d="M11300 875 l0 -365 147 0 c171 0 238 16 290 67 96 97 57 268 -72 310
l-30 10 31 16 c77 40 110 126 79 205 -37 92 -113 122 -312 122 l-133 0 0 -365z
m306 272 c38 -20 59 -65 51 -113 -12 -74 -66 -104 -187 -104 l-80 0 0 121 0
121 93 -4 c59 -3 103 -10 123 -21z m-28 -298 c68 -14 103 -52 110 -117 10
-104 -40 -142 -200 -150 l-98 -5 0 142 0 141 70 0 c38 0 91 -5 118 -11z"/>
<path d="M12540 1200 l0 -40 105 0 105 0 0 -325 0 -325 50 0 50 0 0 325 0 324
103 3 102 3 3 38 3 37 -260 0 -261 0 0 -40z"/>
<path d="M13170 875 l0 -365 45 0 45 0 0 365 0 365 -45 0 -45 0 0 -365z"/>
<path d="M14110 1018 c-39 -123 -92 -283 -116 -357 -24 -73 -44 -137 -44 -142
0 -5 20 -9 45 -9 l45 0 27 90 28 90 146 0 146 0 24 -87 24 -88 52 -3 51 -3
-13 43 c-66 205 -206 639 -214 661 -10 25 -14 27 -70 27 l-59 0 -72 -222z
m174 5 c21 -71 46 -156 56 -190 l19 -63 -121 0 c-91 0 -119 3 -115 13 3 6 29
92 58 190 29 97 56 177 59 177 3 0 23 -57 44 -127z"/>
<path d="M14910 875 l0 -365 200 0 200 0 0 35 0 35 -155 0 -155 0 0 130 0 130
130 0 130 0 0 40 0 40 -130 0 -130 0 0 125 0 125 150 0 150 0 0 35 0 35 -195
0 -195 0 0 -365z"/>
<path d="M15730 875 l0 -365 50 0 50 0 0 365 0 365 -50 0 -50 0 0 -365z"/>
<path d="M16030 875 l0 -365 46 0 47 0 -5 307 -4 307 77 -160 c43 -87 110
-225 150 -306 l72 -148 64 0 63 0 0 365 0 365 -46 0 -46 0 4 -307 3 -307 -149
307 -150 307 -63 0 -63 0 0 -365z"/>
<path d="M17400 875 l0 -365 200 0 200 0 0 35 0 35 -155 0 -155 0 0 130 0 130
125 0 125 0 0 40 0 40 -125 0 -125 0 0 125 0 125 144 0 c153 0 156 1 156 51 0
18 -9 19 -195 19 l-195 0 0 -365z"/>
<path d="M18610 875 l0 -365 45 0 45 0 -1 173 c0 94 -4 233 -8 307 -4 74 -7
136 -6 137 2 3 12 -17 174 -349 l130 -268 66 0 65 0 0 365 0 365 -46 0 -46 0
4 -310 3 -310 -152 310 -152 310 -60 0 -61 0 0 -365z"/>
<path d="M19320 875 l0 -365 200 0 200 0 0 35 0 35 -155 0 -155 0 0 130 0 130
130 0 130 0 0 40 0 40 -130 0 -130 0 0 125 0 125 144 0 c153 0 156 1 156 51 0
18 -9 19 -195 19 l-195 0 0 -365z"/>
<path d="M19870 876 l0 -366 45 0 45 0 0 155 0 155 64 0 63 0 88 -155 89 -155
53 0 c29 0 53 2 53 5 0 2 -42 76 -94 162 l-95 158 37 19 c87 44 129 117 119
208 -8 69 -44 119 -104 149 -43 21 -64 24 -205 27 l-158 4 0 -366z m298 274
c90 -41 96 -177 10 -230 -27 -16 -50 -20 -125 -20 l-93 0 0 135 0 135 83 0
c60 0 94 -6 125 -20z"/>
<path d="M20500 875 l0 -365 45 0 45 0 0 365 0 365 -45 0 -45 0 0 -365z"/>
<path d="M20839 958 c-50 -156 -102 -314 -115 -351 -33 -94 -33 -97 21 -97
l45 0 27 90 27 91 145 -3 145 -3 27 -85 26 -85 50 -3 51 -3 -85 263 c-47 145
-99 308 -118 363 l-32 100 -61 3 -61 3 -92 -283z m198 49 c24 -78 49 -163 57
-189 l15 -48 -119 0 c-66 0 -120 2 -120 5 0 3 15 54 34 113 19 59 44 142 57
185 12 42 25 77 28 77 3 0 25 -64 48 -143z"/>
<path d="M21660 875 l0 -367 143 4 c131 3 146 6 199 31 120 59 171 159 172
337 1 177 -47 271 -166 326 -58 27 -73 29 -205 32 l-143 4 0 -367z m252 284
c124 -26 188 -171 159 -358 -25 -161 -96 -220 -263 -221 l-58 0 0 295 0 295
55 0 c29 0 78 -5 107 -11z"/>
<path d="M22330 875 l0 -365 200 0 200 0 0 35 0 35 -155 0 -155 0 0 130 0 130
130 0 130 0 0 40 0 40 -130 0 -130 0 0 125 0 124 148 3 147 3 3 33 3 32 -195
0 -196 0 0 -365z"/>
<path d="M22880 875 l0 -365 50 0 50 0 0 365 0 365 -50 0 -50 0 0 -365z"/>
<path d="M24010 875 l0 -365 50 0 50 0 0 365 0 365 -50 0 -50 0 0 -365z"/>
<path d="M24770 1200 l0 -40 105 0 105 0 0 -325 0 -325 50 0 50 0 0 325 0 324
102 3 103 3 6 38 6 37 -264 0 -263 0 0 -40z"/>
<path d="M25400 875 l0 -365 200 0 200 0 0 35 0 35 -155 0 -155 0 0 130 0 130
125 0 125 0 0 40 0 40 -125 0 -125 0 0 125 0 124 148 3 147 3 3 33 3 32 -195
0 -196 0 0 -365z"/>
<path d="M25970 1227 c0 -8 -11 -139 -25 -293 -13 -153 -27 -312 -30 -351 l-6
-73 46 0 c40 0 45 2 45 23 0 12 9 128 20 257 11 129 20 260 21 290 l1 55 23
-70 c13 -38 52 -161 86 -273 l63 -203 44 3 45 3 38 130 c22 72 48 162 59 200
11 39 31 104 44 145 l24 75 1 -50 c0 -27 10 -170 23 -317 l22 -268 43 0 c50 0
49 -9 33 164 -5 61 -17 192 -25 291 -8 99 -18 201 -21 228 l-6 47 -64 0 -63 0
-11 -42 c-6 -24 -22 -79 -35 -123 -12 -44 -40 -142 -61 -217 -21 -76 -41 -138
-45 -138 -3 0 -16 35 -29 78 -32 113 -65 224 -100 340 l-32 102 -64 0 c-47 0
-64 -4 -64 -13z"/>
<path d="M26780 875 l0 -365 50 0 50 0 0 365 0 365 -50 0 -50 0 0 -365z"/>
</g>
</svg>
