<?xml version="1.0" standalone="no"?>
<!DOCTYPE svg PUBLIC "-//W3C//DTD SVG 20010904//EN"
 "http://www.w3.org/TR/2001/REC-SVG-20010904/DTD/svg10.dtd">
<svg version="1.0" xmlns="http://www.w3.org/2000/svg"
 width="257.000000pt" height="218.000000pt" viewBox="0 0 257.000000 218.000000"
 preserveAspectRatio="xMidYMid meet">
<metadata>
Created by potrace 1.16, written by Peter Selinger 2001-2019
</metadata>
<g transform="translate(0.000000,218.000000) scale(0.100000,-0.100000)"
fill="#000000" stroke="none">
<path d="M813 1858 c5 -347 8 -371 74 -502 32 -65 64 -111 118 -174 35 -41
123 -103 201 -143 l77 -38 77 40 c92 47 197 132 245 197 39 52 106 185 126
247 8 27 13 146 16 363 l5 322 -472 0 -472 0 5 -312z m417 247 l0 -45 -200 0
-200 0 0 45 0 45 200 0 200 0 0 -45z m510 0 l0 -45 -200 0 -200 0 0 45 0 45
200 0 200 0 0 -45z m-510 -195 l0 -40 -200 0 -200 0 0 40 0 40 200 0 200 0 0
-40z m510 0 l0 -40 -200 0 -200 0 0 40 0 40 200 0 200 0 0 -40z m-323 -112
c65 -24 147 -96 178 -157 73 -146 42 -319 -77 -426 -87 -78 -184 -106 -301
-85 -170 30 -300 199 -284 369 23 244 252 385 484 299z"/>
<path d="M1267 1683 c-14 -4 -16 -12 -11 -42 5 -31 1 -43 -21 -69 -14 -17 -31
-47 -36 -66 -5 -20 -23 -49 -40 -66 -17 -17 -23 -27 -13 -23 12 4 15 2 12 -8
-3 -8 2 -20 10 -28 13 -13 16 -12 29 5 14 17 15 13 9 -46 -4 -36 -11 -81 -16
-100 -4 -19 -11 -47 -14 -62 l-6 -28 116 0 c116 0 116 0 109 23 -14 48 -20
218 -8 240 7 12 12 31 13 41 0 26 -34 96 -61 125 -17 18 -20 30 -15 62 3 22 2
39 -3 39 -5 0 -15 2 -23 4 -7 2 -21 2 -31 -1z m37 -81 c-8 -28 -21 -28 -29 -1
-5 14 -2 25 6 30 19 11 29 -2 23 -29z m16 -43 c-14 -4 -41 -7 -59 -8 -48 -1
-27 17 24 21 49 4 69 -4 35 -13z m34 -78 c8 -12 -3 -39 -17 -44 -7 -2 -4 -3 6
-2 10 2 17 -3 17 -13 0 -11 -9 -18 -25 -18 -26 -2 -32 15 -19 64 6 22 28 30
38 13z m-137 -53 c-3 -7 -5 -2 -5 12 0 14 2 19 5 13 2 -7 2 -19 0 -25z"/>
<path d="M2367 873 c-15 -17 -13 -21 30 -56 70 -57 90 -28 25 36 -37 36 -39
37 -55 20z"/>
<path d="M754 866 c-12 -31 1 -51 32 -54 34 -3 49 16 39 49 -8 23 -63 26 -71
5z"/>
<path d="M1946 862 c-9 -26 2 -49 24 -55 28 -7 52 15 48 44 -4 32 -63 41 -72
11z"/>
<path d="M10 845 c0 -8 9 -15 20 -15 19 0 20 -7 20 -117 0 -146 11 -188 53
-213 39 -24 125 -27 166 -6 55 29 65 58 69 204 4 121 6 132 23 132 11 0 19 7
19 15 0 12 -14 15 -70 15 -56 0 -70 -3 -70 -15 0 -8 9 -15 20 -15 19 0 20 -7
20 -125 0 -120 -1 -127 -25 -150 -30 -31 -83 -33 -116 -6 -23 18 -24 25 -24
148 0 125 1 128 23 131 12 2 22 10 22 18 0 11 -17 14 -75 14 -60 0 -75 -3 -75
-15z"/>
<path d="M2140 814 c0 -8 -13 -29 -30 -46 -35 -34 -39 -58 -10 -58 19 0 20 -7
20 -98 0 -83 3 -102 18 -115 32 -29 132 -19 132 14 0 14 -9 19 -42 21 l-43 3
-3 88 -3 87 41 0 c36 0 40 2 40 25 0 23 -4 25 -40 25 -39 0 -40 1 -40 35 0 28
-4 35 -20 35 -12 0 -20 -7 -20 -16z"/>
<path d="M407 753 c-13 -13 -7 -32 13 -38 18 -6 20 -15 20 -97 0 -81 -2 -90
-20 -95 -11 -3 -20 -14 -20 -24 0 -17 8 -19 65 -19 58 0 65 2 65 20 0 11 -7
20 -15 20 -12 0 -15 16 -15 84 0 83 0 84 29 96 59 24 66 15 69 -88 2 -77 0
-92 -13 -92 -8 0 -15 -9 -15 -20 0 -18 7 -20 65 -20 57 0 65 2 65 19 0 10 -9
21 -20 24 -18 5 -20 14 -20 101 0 83 -3 99 -20 116 -24 24 -67 26 -116 5 -31
-13 -36 -13 -41 0 -5 15 -63 21 -76 8z"/>
<path d="M730 742 c0 -11 7 -22 15 -26 12 -4 15 -25 15 -101 0 -88 -1 -95 -20
-95 -13 0 -20 -7 -20 -20 0 -18 7 -20 70 -20 63 0 70 2 70 20 0 11 -7 20 -15
20 -12 0 -15 22 -17 118 l-3 117 -47 3 c-42 3 -48 1 -48 -16z"/>
<path d="M867 741 c-3 -12 1 -21 12 -24 10 -2 33 -48 60 -121 l45 -116 33 0
c38 0 31 -11 93 153 19 50 39 87 46 87 8 0 14 9 14 20 0 18 -7 20 -55 20 -48
0 -55 -2 -55 -20 0 -11 6 -20 14 -20 16 0 14 -9 -24 -112 l-24 -66 -33 85
c-18 47 -33 87 -33 89 0 2 9 4 21 4 14 0 19 5 17 18 -3 13 -15 18 -64 20 -54
3 -62 0 -67 -17z"/>
<path d="M1234 741 c-75 -46 -71 -206 5 -245 35 -18 95 -21 138 -5 24 8 30 15
26 30 -5 17 -11 19 -49 13 -63 -9 -90 1 -102 36 l-11 30 86 0 85 0 -4 56 c-6
71 -29 95 -95 101 -36 3 -56 -1 -79 -16z m94 -37 c12 -8 22 -24 22 -35 0 -16
-7 -19 -54 -19 -49 0 -54 2 -49 20 5 18 38 50 53 50 3 0 16 -7 28 -16z"/>
<path d="M1450 741 c0 -10 7 -21 15 -25 12 -4 15 -25 15 -101 0 -78 -3 -95
-15 -95 -8 0 -15 -9 -15 -20 0 -18 7 -20 75 -20 68 0 75 2 75 20 0 16 -7 20
-30 20 l-30 0 0 78 c0 64 4 82 18 95 25 22 39 21 45 -3 3 -14 14 -20 32 -20
25 0 26 2 23 43 -3 40 -4 42 -39 45 -25 2 -40 -3 -54 -18 -23 -25 -35 -26 -35
0 0 17 -7 20 -40 20 -33 0 -40 -4 -40 -19z"/>
<path d="M1724 741 c-36 -22 -49 -58 -34 -95 10 -27 26 -36 98 -55 34 -10 42
-16 42 -35 0 -26 -17 -36 -61 -36 -22 0 -32 6 -39 25 -6 15 -17 25 -30 25 -17
0 -20 -7 -20 -39 0 -44 12 -51 93 -51 74 0 116 29 117 81 0 40 -28 67 -90 87
-80 25 -82 71 -2 72 21 0 32 -5 32 -15 0 -12 28 -35 44 -35 3 0 6 17 6 39 0
32 -4 40 -22 45 -44 11 -103 6 -134 -13z"/>
<path d="M1926 743 c-6 -15 8 -32 27 -33 4 0 7 -43 7 -95 0 -88 -1 -95 -20
-95 -13 0 -20 -7 -20 -20 0 -18 7 -20 70 -20 63 0 70 2 70 20 0 13 -7 20 -20
20 -19 0 -20 7 -20 120 l0 120 -44 0 c-32 0 -46 -5 -50 -17z"/>
<path d="M2353 750 c-21 -9 -43 -38 -43 -59 0 -6 14 -11 30 -11 20 0 30 5 30
15 0 18 40 29 69 20 16 -5 21 -15 21 -39 0 -33 -1 -33 -52 -39 -69 -9 -102
-33 -106 -80 -4 -47 24 -77 74 -77 36 0 73 15 86 34 5 6 8 1 8 -11 0 -20 5
-23 45 -23 38 0 45 3 45 20 0 13 -7 20 -20 20 -19 0 -20 7 -20 99 0 96 -1 100
-26 120 -28 22 -99 28 -141 11z m107 -175 c0 -45 -90 -64 -99 -21 -4 26 25 46
66 46 28 0 33 -3 33 -25z"/>
<path d="M170 391 c0 -11 9 -23 20 -26 16 -5 20 -15 20 -52 0 -39 -2 -44 -17
-38 -34 15 -84 17 -113 5 -48 -20 -65 -55 -65 -138 0 -71 1 -75 33 -103 38
-34 93 -39 132 -12 17 12 25 13 28 5 6 -18 92 -16 92 2 0 8 -7 16 -15 20 -13
4 -15 34 -15 181 l0 175 -50 0 c-43 0 -50 -3 -50 -19z m18 -163 c7 -7 12 -39
12 -74 0 -54 -3 -65 -22 -78 -29 -20 -62 -20 -82 0 -21 21 -21 112 0 142 17
25 71 31 92 10z"/>
<path d="M358 393 c-8 -35 2 -53 32 -53 34 0 53 26 39 52 -13 24 -65 24 -71 1z"/>
<path d="M760 391 c-57 -18 -91 -43 -110 -81 -57 -112 -24 -236 74 -281 46
-21 139 -25 199 -8 l37 10 0 58 c0 50 3 59 20 64 12 3 20 14 20 26 0 20 -5 21
-85 21 -47 0 -85 -4 -85 -9 0 -5 -3 -16 -6 -25 -5 -13 1 -16 25 -16 30 0 31
-2 31 -40 l0 -40 -42 0 c-88 0 -139 67 -124 163 9 56 20 72 62 92 53 25 103
14 111 -26 4 -24 10 -29 34 -29 28 0 29 2 29 50 0 46 -3 52 -27 62 -36 14
-131 20 -163 9z"/>
<path d="M337 270 c-3 -13 1 -21 14 -25 17 -6 19 -17 19 -97 0 -81 -2 -90 -20
-95 -11 -3 -20 -12 -20 -19 0 -11 18 -14 75 -14 58 0 75 3 75 14 0 8 -10 16
-22 18 -22 3 -23 7 -26 121 l-3 117 -43 0 c-35 0 -45 -4 -49 -20z"/>
<path d="M1073 270 c-44 -26 -53 -48 -53 -125 0 -60 3 -69 28 -95 33 -33 83
-45 145 -36 58 9 71 19 63 49 -6 24 -9 25 -38 16 -50 -14 -76 -11 -98 11 -34
34 -24 40 65 40 l85 0 0 36 c0 48 -25 99 -56 113 -38 17 -105 13 -141 -9z
m101 -46 c30 -29 20 -44 -29 -44 -49 0 -55 10 -25 40 24 24 34 25 54 4z"/>
<path d="M1300 265 c0 -16 6 -25 15 -25 12 0 15 -17 15 -90 0 -73 -3 -90 -15
-90 -8 0 -15 -9 -15 -20 0 -18 7 -20 75 -20 68 0 75 2 75 20 0 11 -7 20 -15
20 -12 0 -15 16 -15 80 0 77 1 80 25 86 50 12 55 3 55 -106 l0 -100 60 0 c53
0 60 2 60 20 0 13 -7 20 -20 20 -19 0 -20 7 -20 95 0 82 -3 98 -20 115 -24 24
-88 27 -130 5 -27 -14 -30 -14 -30 0 0 11 -12 15 -50 15 -47 0 -50 -2 -50 -25z"/>
<path d="M1710 277 c-13 -7 -35 -28 -48 -47 -20 -29 -23 -44 -20 -93 4 -49 9
-63 35 -89 58 -58 187 -47 231 20 10 16 16 46 16 89 0 63 -2 67 -37 99 -33 30
-43 34 -94 34 -32 0 -69 -6 -83 -13z m110 -57 c24 -24 28 -106 7 -134 -17 -24
-67 -24 -84 0 -21 28 -17 110 7 134 11 11 27 20 35 20 8 0 24 -9 35 -20z"/>
<path d="M1940 281 c0 -5 -3 -16 -6 -25 -4 -11 0 -16 12 -16 15 0 29 -25 61
-108 l41 -107 52 0 52 0 42 105 c28 69 48 106 59 108 10 2 17 13 17 28 0 23
-3 24 -65 24 -62 0 -65 -1 -65 -24 0 -14 6 -26 14 -28 11 -2 9 -17 -11 -70
-14 -38 -28 -68 -32 -68 -4 0 -16 26 -27 58 -27 82 -27 82 -10 82 10 0 16 9
16 25 0 24 -2 25 -75 25 -41 0 -75 -4 -75 -9z"/>
<path d="M2316 269 c-14 -11 -26 -29 -26 -40 0 -16 7 -19 40 -19 30 0 40 4 40
16 0 11 8 14 33 12 28 -3 32 -7 35 -34 3 -31 3 -31 -52 -36 -79 -7 -106 -27
-106 -83 0 -34 5 -47 22 -59 28 -20 81 -20 118 -1 17 9 30 11 30 5 0 -6 24
-10 55 -10 48 0 55 2 55 20 0 13 -7 20 -20 20 -19 0 -20 7 -20 90 0 83 -2 93
-25 115 -21 21 -33 25 -88 25 -50 0 -70 -5 -91 -21z m124 -164 c0 -18 -7 -26
-25 -31 -34 -8 -57 2 -53 23 3 15 24 24 71 32 4 0 7 -10 7 -24z"/>
</g>
</svg>
